<svg xmlns="http://www.w3.org/2000/svg" viewBox="0 0 32 32" fill="none">
  <defs>
    <linearGradient id="brand-favicon" x1="6" y1="6" x2="26" y2="26" gradientUnits="userSpaceOnUse">
      <stop stop-color="#F2760A"/>
      <stop offset="1" stop-color="#D4A94A"/>
    </linearGradient>
  </defs>
  <rect width="32" height="32" rx="7" fill="#171512"/>
  <g transform="translate(16 16) scale(0.62) translate(-16 -16)">
    <path d="M16 2.5c.9 6.9 5.6 11.6 12.5 12.5v2c-6.9.9-11.6 5.6-12.5 12.5h-2C13.1 22.6 8.4 17.9 1.5 17v-2C8.4 14.1 13.1 9.4 14 2.5h2z" fill="url(#brand-favicon)"/>
    <path d="M26 3.5c.3 2 1.3 3 3.3 3.3-.2 2-1.3 3-3.3 3.3-.3-2-1.3-3-3.3-3.3.2-2 1.3-3 3.3-3.3z" fill="#D4A94A" opacity="0.8"/>
  </g>
</svg>
