<svg width="1920" height="3169" viewBox="0 0 1920 3169" fill="none" xmlns="http://www.w3.org/2000/svg">
<g clip-path="url(#clip0_565_513)">
<rect width="1920" height="3169" fill="url(#paint0_linear_565_513)"/>
<path d="M29.1338 70.3594H101.829V6H103.659V70.3594H176.354V6H178.185V70.3594H250.88V6H252.71V70.3594H325.405V6H327.235V70.3594H399.931V6H401.761V70.3594H474.456V6H476.286V70.3594H548.981V6H550.812V70.3594H623.506V6H625.337V70.3594H698.031V6H699.862V70.3594H772.557V6H774.388V70.3594H847.082V6H849.144V70.3594H921.607V6H923.669V70.3594H996.133V6H998.194V70.3594H1070.66V6H1072.72V70.3594H1145.18V6H1147.24V70.3594H1219.71V6H1221.77V70.3594H1294.23V6H1296.29V70.3594H1368.76V6H1370.82V70.3594H1443.29V6H1445.35V70.3594H1518.04V6H1519.87V70.3594H1592.57V6H1594.4V70.3594H1667.09V6H1668.92V70.3594H1741.62V6H1743.45V70.3594H1816.14V6H1817.97V70.3594H1890.67V6H1892.5V70.3594H1965.19V6H1967.02V70.3594H2039.72V6H2041.55V70.3594H2114.24V6H2116.07V70.3594H2188.77V6H2190.6V70.3594H2263.29V6H2265.12V70.3594H2337V72.1904H2265.12V144.948H2337V146.78H2265.12V219.538H2337V221.37H2265.12V294.128H2337V295.959H2265.12V368.717H2337V370.548H2265.12V443.307H2337V445.138H2265.12V517.896H2337V519.727H2265.12V592.484H2337V594.316H2265.12V667.074H2337V668.906H2265.12V741.663H2337V743.495H2265.12V816.254H2337V818.085H2265.12V890.843H2337V892.674H2265.12V965.432H2337V967.263H2265.12V1043.36H2337V1045.19H2265.12V1117.95H2337V1119.78H2265.12V1192.54H2337V1194.37H2265.12V1267.13H2337V1268.96H2265.12V1341.72H2337V1343.55H2265.12V1416.31H2337V1418.14H2265.12V1490.9H2337V1492.73H2265.12V1565.48H2337V1567.32H2265.12V1640.07H2337V1641.91H2265.12V1714.66H2337V1716.5H2265.12V1789.25H2337V1791.08H2265.12V1863.84H2337V1865.67H2265.12V1938.43H2337V1940.26H2265.12V2012.4H2337V2014.26H2265.12V2088.2H2337V2090.06H2265.12V2163.99H2337V2165.85H2265.12V2239.79H2337V2241.65H2265.12V2315.58H2337V2317.45H2265.12V2391.38H2337V2393.24H2265.12V2467.18H2337V2469.04H2265.12V2542.97H2337V2544.83H2265.12V2618.77H2337V2620.63H2265.12V2694.57H2337V2696.43H2265.12V2770.36H2337V2772.22H2265.12V2846.16H2337V2848.02H2265.12V2921.95H2337V2923.81H2265.12V2995.4H2337V2997.26H2265.12V3071.2H2337V3073.06H2265.12V3146.99H2337V3148.85H2265.12V3222.79H2337V3224.65H2265.12V3298.58H2337V3300.45H2265.12V3374.38H2337V3376.24H2265.12V3450.18H2337V3452.04H2265.12V3525.97H2337V3527.83H2265.12V3601.77H2337V3603.63H2265.12V3677.57H2337V3679.43H2265.12V3753.36H2337V3755.22H2265.12V3829.16H2337V3831.02H2265.12V3904.95H2337V3906.81H2265.12V3935H2263.29V3906.81H2190.6V3935H2188.77V3906.81H2116.07V3935H2114.24V3906.81H2041.55V3935H2039.72V3906.81H1967.02V3935H1965.19V3906.81H1892.5V3935H1890.67V3906.81H1817.97V3935H1816.14V3906.81H1743.45V3935H1741.62V3906.81H1668.92V3935H1667.09V3906.81H1594.4V3935H1592.57V3906.81H1519.87V3935H1518.04V3906.81H1445.35V3935H1443.29V3906.81H1370.82V3935H1368.76V3906.81H1296.29V3935H1294.23V3906.81H1221.77V3935H1219.71V3906.81H1147.24V3935H1145.18V3906.81H1072.72V3935H1070.66V3906.81H998.194V3935H996.133V3906.81H923.669V3935H921.607V3906.81H849.144V3935H847.082V3906.81H774.388V3935H772.557V3906.81H699.862V3935H698.031V3906.81H625.337V3935H623.506V3906.81H550.812V3935H548.981V3906.81H476.286V3935H474.456V3906.81H401.761V3935H399.931V3906.81H327.235V3935H325.405V3906.81H252.71V3935H250.88V3906.81H178.185V3935H176.354V3906.81H103.659V3935H101.829V3906.81H29.1338V3935H27.3037V3906.81H-37V3904.95H27.3037V3831.02H-37V3829.16H27.3037V3755.22H-37V3753.36H27.3037V3679.43H-37V3677.57H27.3037V3603.63H-37V3601.77H27.3037V3527.83H-37V3525.97H27.3037V3452.04H-37V3450.18H27.3037V3376.24H-37V3374.38H27.3037V3300.45H-37V3298.58H27.3037V3224.65H-37V3222.79H27.3037V3148.85H-37V3146.99H27.3037V3073.06H-37V3071.2H27.3037V2997.26H-37V2995.4H27.3037V2923.81H-37V2921.95H27.3037V2848.02H-37V2846.16H27.3037V2772.22H-37V2770.36H27.3037V2696.43H-37V2694.57H27.3037V2620.63H-37V2618.77H27.3037V2544.83H-37V2542.97H27.3037V2469.04H-37V2467.18H27.3037V2393.24H-37V2391.38H27.3037V2317.45H-37V2315.58H27.3037V2241.65H-37V2239.79H27.3037V2165.85H-37V2163.99H27.3037V2090.06H-37V2088.2H27.3037V2014.26H-37V2012.4H27.3037V1940.26H-37V1938.43H27.3037V1865.67H-37V1863.84H27.3037V1791.08H-37V1789.25H27.3037V1716.5H-37V1714.66H27.3037V1641.91H-37V1640.07H27.3037V1567.32H-37V1565.48H27.3037V1492.73H-37V1490.9H27.3037V1418.14H-37V1416.31H27.3037V1343.55H-37V1341.72H27.3037V1268.96H-37V1267.13H27.3037V1194.37H-37V1192.54H27.3037V1119.78H-37V1117.95H27.3037V1045.19H-37V1043.36H27.3037V967.263H-37V965.432H27.3037V892.674H-37V890.843H27.3037V818.085H-37V816.254H27.3037V743.495H-37V741.663H27.3037V668.906H-37V667.074H27.3037V594.316H-37V592.484H27.3037V519.727H-37V517.896H27.3037V445.138H-37V443.307H27.3037V370.548H-37V368.717H27.3037V295.959H-37V294.128H27.3037V221.37H-37V219.538H27.3037V146.78H-37V144.948H27.3037V72.1904H-37V70.3594H27.3037V6H29.1338V70.3594ZM29.1338 3904.95H101.829V3831.02H29.1338V3904.95ZM103.659 3904.95H176.354V3831.02H103.659V3904.95ZM178.185 3904.95H250.88V3831.02H178.185V3904.95ZM252.71 3904.95H325.405V3831.02H252.71V3904.95ZM327.235 3904.95H399.931V3831.02H327.235V3904.95ZM401.761 3904.95H474.456V3831.02H401.761V3904.95ZM476.286 3904.95H548.981V3831.02H476.286V3904.95ZM550.812 3904.95H623.506V3831.02H550.812V3904.95ZM625.337 3904.95H698.031V3831.02H625.337V3904.95ZM699.862 3904.95H772.557V3831.02H699.862V3904.95ZM774.388 3904.95H847.082V3831.02H774.388V3904.95ZM849.144 3904.95H921.607V3831.02H849.144V3904.95ZM923.669 3904.95H996.133V3831.02H923.669V3904.95ZM998.194 3904.95H1070.66V3831.02H998.194V3904.95ZM1072.72 3904.95H1145.18V3831.02H1072.72V3904.95ZM1147.24 3904.95H1219.71V3831.02H1147.24V3904.95ZM1221.77 3904.95H1294.23V3831.02H1221.77V3904.95ZM1296.29 3904.95H1368.76V3831.02H1296.29V3904.95ZM1370.82 3904.95H1443.29V3831.02H1370.82V3904.95ZM1445.35 3904.95H1518.04V3831.02H1445.35V3904.95ZM1519.87 3904.95H1592.57V3831.02H1519.87V3904.95ZM1594.4 3904.95H1667.09V3831.02H1594.4V3904.95ZM1668.92 3904.95H1741.62V3831.02H1668.92V3904.95ZM1743.45 3904.95H1816.14V3831.02H1743.45V3904.95ZM1817.97 3904.95H1890.67V3831.02H1817.97V3904.95ZM1892.5 3904.95H1965.19V3831.02H1892.5V3904.95ZM1967.02 3904.95H2039.72V3831.02H1967.02V3904.95ZM2041.55 3904.95H2114.24V3831.02H2041.55V3904.95ZM2116.07 3904.95H2188.77V3831.02H2116.07V3904.95ZM2190.6 3904.95H2263.29V3831.02H2190.6V3904.95ZM29.1338 3829.16H101.829V3755.22H29.1338V3829.16ZM103.659 3829.16H176.354V3755.22H103.659V3829.16ZM178.185 3829.16H250.88V3755.22H178.185V3829.16ZM252.71 3829.16H325.405V3755.22H252.71V3829.16ZM327.235 3829.16H399.931V3755.22H327.235V3829.16ZM401.761 3829.16H474.456V3755.22H401.761V3829.16ZM476.286 3829.16H548.981V3755.22H476.286V3829.16ZM550.812 3829.16H623.506V3755.22H550.812V3829.16ZM625.337 3829.16H698.031V3755.22H625.337V3829.16ZM699.862 3829.16H772.557V3755.22H699.862V3829.16ZM774.388 3829.16H847.082V3755.22H774.388V3829.16ZM849.144 3829.16H921.607V3755.22H849.144V3829.16ZM923.669 3829.16H996.133V3755.22H923.669V3829.16ZM998.194 3829.16H1070.66V3755.22H998.194V3829.16ZM1072.72 3829.16H1145.18V3755.22H1072.72V3829.16ZM1147.24 3829.16H1219.71V3755.22H1147.24V3829.16ZM1221.77 3829.16H1294.23V3755.22H1221.77V3829.16ZM1296.29 3829.16H1368.76V3755.22H1296.29V3829.16ZM1370.82 3829.16H1443.29V3755.22H1370.82V3829.16ZM1445.35 3829.16H1518.04V3755.22H1445.35V3829.16ZM1519.87 3829.16H1592.57V3755.22H1519.87V3829.16ZM1594.4 3829.16H1667.09V3755.22H1594.4V3829.16ZM1668.92 3829.16H1741.62V3755.22H1668.92V3829.16ZM1743.45 3829.16H1816.14V3755.22H1743.45V3829.16ZM1817.97 3829.16H1890.67V3755.22H1817.97V3829.16ZM1892.5 3829.16H1965.19V3755.22H1892.5V3829.16ZM1967.02 3829.16H2039.72V3755.22H1967.02V3829.16ZM2041.55 3829.16H2114.24V3755.22H2041.55V3829.16ZM2116.07 3829.16H2188.77V3755.22H2116.07V3829.16ZM2190.6 3829.16H2263.29V3755.22H2190.6V3829.16ZM29.1338 3753.36H101.829V3679.43H29.1338V3753.36ZM103.659 3753.36H176.354V3679.43H103.659V3753.36ZM178.185 3753.36H250.88V3679.43H178.185V3753.36ZM252.71 3753.36H325.405V3679.43H252.71V3753.36ZM327.235 3753.36H399.931V3679.43H327.235V3753.36ZM401.761 3753.36H474.456V3679.43H401.761V3753.36ZM476.286 3753.36H548.981V3679.43H476.286V3753.36ZM550.812 3753.36H623.506V3679.43H550.812V3753.36ZM625.337 3753.36H698.031V3679.43H625.337V3753.36ZM699.862 3753.36H772.557V3679.43H699.862V3753.36ZM774.388 3753.36H847.082V3679.43H774.388V3753.36ZM849.144 3753.36H921.607V3679.43H849.144V3753.36ZM923.669 3753.36H996.133V3679.43H923.669V3753.36ZM998.194 3753.36H1070.66V3679.43H998.194V3753.36ZM1072.72 3753.36H1145.18V3679.43H1072.72V3753.36ZM1147.24 3753.36H1219.71V3679.43H1147.24V3753.36ZM1221.77 3753.36H1294.23V3679.43H1221.77V3753.36ZM1296.29 3753.36H1368.76V3679.43H1296.29V3753.36ZM1370.82 3753.36H1443.29V3679.43H1370.82V3753.36ZM1445.35 3753.36H1518.04V3679.43H1445.35V3753.36ZM1519.87 3753.36H1592.57V3679.43H1519.87V3753.36ZM1594.4 3753.36H1667.09V3679.43H1594.4V3753.36ZM1668.92 3753.36H1741.62V3679.43H1668.92V3753.36ZM1743.45 3753.36H1816.14V3679.43H1743.45V3753.36ZM1817.97 3753.36H1890.67V3679.43H1817.97V3753.36ZM1892.5 3753.36H1965.19V3679.43H1892.5V3753.36ZM1967.02 3753.36H2039.72V3679.43H1967.02V3753.36ZM2041.55 3753.36H2114.24V3679.43H2041.55V3753.36ZM2116.07 3753.36H2188.77V3679.43H2116.07V3753.36ZM2190.6 3753.36H2263.29V3679.43H2190.6V3753.36ZM29.1338 3677.57H101.829V3603.63H29.1338V3677.57ZM103.659 3677.57H176.354V3603.63H103.659V3677.57ZM178.185 3677.57H250.88V3603.63H178.185V3677.57ZM252.71 3677.57H325.405V3603.63H252.71V3677.57ZM327.235 3677.57H399.931V3603.63H327.235V3677.57ZM401.761 3677.57H474.456V3603.63H401.761V3677.57ZM476.286 3677.57H548.981V3603.63H476.286V3677.57ZM550.812 3677.57H623.506V3603.63H550.812V3677.57ZM625.337 3677.57H698.031V3603.63H625.337V3677.57ZM699.862 3677.57H772.557V3603.63H699.862V3677.57ZM774.388 3677.57H847.082V3603.63H774.388V3677.57ZM849.144 3677.57H921.607V3603.63H849.144V3677.57ZM923.669 3677.57H996.133V3603.63H923.669V3677.57ZM998.194 3677.57H1070.66V3603.63H998.194V3677.57ZM1072.72 3677.57H1145.18V3603.63H1072.72V3677.57ZM1147.24 3677.57H1219.71V3603.63H1147.24V3677.57ZM1221.77 3677.57H1294.23V3603.63H1221.77V3677.57ZM1296.29 3677.57H1368.76V3603.63H1296.29V3677.57ZM1370.82 3677.57H1443.29V3603.63H1370.82V3677.57ZM1445.35 3677.57H1518.04V3603.63H1445.35V3677.57ZM1519.87 3677.57H1592.57V3603.63H1519.87V3677.57ZM1594.4 3677.57H1667.09V3603.63H1594.4V3677.57ZM1668.92 3677.57H1741.62V3603.63H1668.92V3677.57ZM1743.45 3677.57H1816.14V3603.63H1743.45V3677.57ZM1817.97 3677.57H1890.67V3603.63H1817.97V3677.57ZM1892.5 3677.57H1965.19V3603.63H1892.5V3677.57ZM1967.02 3677.57H2039.72V3603.63H1967.02V3677.57ZM2041.55 3677.57H2114.24V3603.63H2041.55V3677.57ZM2116.07 3677.57H2188.77V3603.63H2116.07V3677.57ZM2190.6 3677.57H2263.29V3603.63H2190.6V3677.57ZM29.1338 3601.77H101.829V3527.83H29.1338V3601.77ZM103.659 3601.77H176.354V3527.83H103.659V3601.77ZM178.185 3601.77H250.88V3527.83H178.185V3601.77ZM252.71 3601.77H325.405V3527.83H252.71V3601.77ZM327.235 3601.77H399.931V3527.83H327.235V3601.77ZM401.761 3601.77H474.456V3527.83H401.761V3601.77ZM476.286 3601.77H548.981V3527.83H476.286V3601.77ZM550.812 3601.77H623.506V3527.83H550.812V3601.77ZM625.337 3601.77H698.031V3527.83H625.337V3601.77ZM699.862 3601.77H772.557V3527.83H699.862V3601.77ZM774.388 3601.77H847.082V3527.83H774.388V3601.77ZM849.144 3601.77H921.607V3527.83H849.144V3601.77ZM923.669 3601.77H996.133V3527.83H923.669V3601.77ZM998.194 3601.77H1070.66V3527.83H998.194V3601.77ZM1072.72 3601.77H1145.18V3527.83H1072.72V3601.77ZM1147.24 3601.77H1219.71V3527.83H1147.24V3601.77ZM1221.77 3601.77H1294.23V3527.83H1221.77V3601.77ZM1296.29 3601.77H1368.76V3527.83H1296.29V3601.77ZM1370.82 3601.77H1443.29V3527.83H1370.82V3601.77ZM1445.35 3601.77H1518.04V3527.83H1445.35V3601.77ZM1519.87 3601.77H1592.57V3527.83H1519.87V3601.77ZM1594.4 3601.77H1667.09V3527.83H1594.4V3601.77ZM1668.92 3601.77H1741.62V3527.83H1668.92V3601.77ZM1743.45 3601.77H1816.14V3527.83H1743.45V3601.77ZM1817.97 3601.77H1890.67V3527.83H1817.97V3601.77ZM1892.5 3601.77H1965.19V3527.83H1892.5V3601.77ZM1967.02 3601.77H2039.72V3527.83H1967.02V3601.77ZM2041.55 3601.77H2114.24V3527.83H2041.55V3601.77ZM2116.07 3601.77H2188.77V3527.83H2116.07V3601.77ZM2190.6 3601.77H2263.29V3527.83H2190.6V3601.77ZM29.1338 3525.97H101.829V3452.04H29.1338V3525.97ZM103.659 3525.97H176.354V3452.04H103.659V3525.97ZM178.185 3525.97H250.88V3452.04H178.185V3525.97ZM252.71 3525.97H325.405V3452.04H252.71V3525.97ZM327.235 3525.97H399.931V3452.04H327.235V3525.97ZM401.761 3525.97H474.456V3452.04H401.761V3525.97ZM476.286 3525.97H548.981V3452.04H476.286V3525.97ZM550.812 3525.97H623.506V3452.04H550.812V3525.97ZM625.337 3525.97H698.031V3452.04H625.337V3525.97ZM699.862 3525.97H772.557V3452.04H699.862V3525.97ZM774.388 3525.97H847.082V3452.04H774.388V3525.97ZM849.144 3525.97H921.607V3452.04H849.144V3525.97ZM923.669 3525.97H996.133V3452.04H923.669V3525.97ZM998.194 3525.97H1070.66V3452.04H998.194V3525.97ZM1072.72 3525.97H1145.18V3452.04H1072.72V3525.97ZM1147.24 3525.97H1219.71V3452.04H1147.24V3525.97ZM1221.77 3525.97H1294.23V3452.04H1221.77V3525.97ZM1296.29 3525.97H1368.76V3452.04H1296.29V3525.97ZM1370.82 3525.97H1443.29V3452.04H1370.82V3525.97ZM1445.35 3525.97H1518.04V3452.04H1445.35V3525.97ZM1519.87 3525.97H1592.57V3452.04H1519.87V3525.97ZM1594.4 3525.97H1667.09V3452.04H1594.4V3525.97ZM1668.92 3525.97H1741.62V3452.04H1668.92V3525.97ZM1743.45 3525.97H1816.14V3452.04H1743.45V3525.97ZM1817.97 3525.97H1890.67V3452.04H1817.97V3525.97ZM1892.5 3525.97H1965.19V3452.04H1892.5V3525.97ZM1967.02 3525.97H2039.72V3452.04H1967.02V3525.97ZM2041.55 3525.97H2114.24V3452.04H2041.55V3525.97ZM2116.07 3525.97H2188.77V3452.04H2116.07V3525.97ZM2190.6 3525.97H2263.29V3452.04H2190.6V3525.97ZM29.1338 3450.18H101.829V3376.24H29.1338V3450.18ZM103.659 3450.18H176.354V3376.24H103.659V3450.18ZM178.185 3450.18H250.88V3376.24H178.185V3450.18ZM252.71 3450.18H325.405V3376.24H252.71V3450.18ZM327.235 3450.18H399.931V3376.24H327.235V3450.18ZM401.761 3450.18H474.456V3376.24H401.761V3450.18ZM476.286 3450.18H548.981V3376.24H476.286V3450.18ZM550.812 3450.18H623.506V3376.24H550.812V3450.18ZM625.337 3450.18H698.031V3376.24H625.337V3450.18ZM699.862 3450.18H772.557V3376.24H699.862V3450.18ZM774.388 3450.18H847.082V3376.24H774.388V3450.18ZM849.144 3450.18H921.607V3376.24H849.144V3450.18ZM923.669 3450.18H996.133V3376.24H923.669V3450.18ZM998.194 3450.18H1070.66V3376.24H998.194V3450.18ZM1072.72 3450.18H1145.18V3376.24H1072.72V3450.18ZM1147.24 3450.18H1219.71V3376.24H1147.24V3450.18ZM1221.77 3450.18H1294.23V3376.24H1221.77V3450.18ZM1296.29 3450.18H1368.76V3376.24H1296.29V3450.18ZM1370.82 3450.18H1443.29V3376.24H1370.82V3450.18ZM1445.35 3450.18H1518.04V3376.24H1445.35V3450.18ZM1519.87 3450.18H1592.57V3376.24H1519.87V3450.18ZM1594.4 3450.18H1667.09V3376.24H1594.4V3450.18ZM1668.92 3450.18H1741.62V3376.24H1668.92V3450.18ZM1743.45 3450.18H1816.14V3376.24H1743.45V3450.18ZM1817.97 3450.18H1890.67V3376.24H1817.97V3450.18ZM1892.5 3450.18H1965.19V3376.24H1892.5V3450.18ZM1967.02 3450.18H2039.72V3376.24H1967.02V3450.18ZM2041.55 3450.18H2114.24V3376.24H2041.55V3450.18ZM2116.07 3450.18H2188.77V3376.24H2116.07V3450.18ZM2190.6 3450.18H2263.29V3376.24H2190.6V3450.18ZM29.1338 3374.38H101.829V3300.45H29.1338V3374.38ZM103.659 3374.38H176.354V3300.45H103.659V3374.38ZM178.185 3374.38H250.88V3300.45H178.185V3374.38ZM252.71 3374.38H325.405V3300.45H252.71V3374.38ZM327.235 3374.38H399.931V3300.45H327.235V3374.38ZM401.761 3374.38H474.456V3300.45H401.761V3374.38ZM476.286 3374.38H548.981V3300.45H476.286V3374.38ZM550.812 3374.38H623.506V3300.45H550.812V3374.38ZM625.337 3374.38H698.031V3300.45H625.337V3374.38ZM699.862 3374.38H772.557V3300.45H699.862V3374.38ZM774.388 3374.38H847.082V3300.45H774.388V3374.38ZM849.144 3374.38H921.607V3300.45H849.144V3374.38ZM923.669 3374.38H996.133V3300.45H923.669V3374.38ZM998.194 3374.38H1070.66V3300.45H998.194V3374.38ZM1072.72 3374.38H1145.18V3300.45H1072.72V3374.38ZM1147.24 3374.38H1219.71V3300.45H1147.24V3374.38ZM1221.77 3374.38H1294.23V3300.45H1221.77V3374.38ZM1296.29 3374.38H1368.76V3300.45H1296.29V3374.38ZM1370.82 3374.38H1443.29V3300.45H1370.82V3374.38ZM1445.35 3374.38H1518.04V3300.45H1445.35V3374.38ZM1519.87 3374.38H1592.57V3300.45H1519.87V3374.38ZM1594.4 3374.38H1667.09V3300.45H1594.4V3374.38ZM1668.92 3374.38H1741.62V3300.45H1668.92V3374.38ZM1743.45 3374.38H1816.14V3300.45H1743.45V3374.38ZM1817.97 3374.38H1890.67V3300.45H1817.97V3374.38ZM1892.5 3374.38H1965.19V3300.45H1892.5V3374.38ZM1967.02 3374.38H2039.72V3300.45H1967.02V3374.38ZM2041.55 3374.38H2114.24V3300.45H2041.55V3374.38ZM2116.07 3374.38H2188.77V3300.45H2116.07V3374.38ZM2190.6 3374.38H2263.29V3300.45H2190.6V3374.38ZM29.1338 3298.58H101.829V3224.65H29.1338V3298.58ZM103.659 3298.58H176.354V3224.65H103.659V3298.58ZM178.185 3298.58H250.88V3224.65H178.185V3298.58ZM252.71 3298.58H325.405V3224.65H252.71V3298.58ZM327.235 3298.58H399.931V3224.65H327.235V3298.58ZM401.761 3298.58H474.456V3224.65H401.761V3298.58ZM476.286 3298.58H548.981V3224.65H476.286V3298.58ZM550.812 3298.58H623.506V3224.65H550.812V3298.58ZM625.337 3298.58H698.031V3224.65H625.337V3298.58ZM699.862 3298.58H772.557V3224.65H699.862V3298.58ZM774.388 3298.58H847.082V3224.65H774.388V3298.58ZM849.144 3298.58H921.607V3224.65H849.144V3298.58ZM923.669 3298.58H996.133V3224.65H923.669V3298.58ZM998.194 3298.58H1070.66V3224.65H998.194V3298.58ZM1072.72 3298.58H1145.18V3224.65H1072.72V3298.58ZM1147.24 3298.58H1219.71V3224.65H1147.24V3298.58ZM1221.77 3298.58H1294.23V3224.65H1221.77V3298.58ZM1296.29 3298.58H1368.76V3224.65H1296.29V3298.58ZM1370.82 3298.58H1443.29V3224.65H1370.82V3298.58ZM1445.35 3298.58H1518.04V3224.65H1445.35V3298.58ZM1519.87 3298.58H1592.57V3224.65H1519.87V3298.58ZM1594.4 3298.58H1667.09V3224.65H1594.4V3298.58ZM1668.92 3298.58H1741.62V3224.65H1668.92V3298.58ZM1743.45 3298.58H1816.14V3224.65H1743.45V3298.58ZM1817.97 3298.58H1890.67V3224.65H1817.97V3298.58ZM1892.5 3298.58H1965.19V3224.65H1892.5V3298.58ZM1967.02 3298.58H2039.72V3224.65H1967.02V3298.58ZM2041.55 3298.58H2114.24V3224.65H2041.55V3298.58ZM2116.07 3298.58H2188.77V3224.65H2116.07V3298.58ZM2190.6 3298.58H2263.29V3224.65H2190.6V3298.58ZM29.1338 3222.79H101.829V3148.85H29.1338V3222.79ZM103.659 3222.79H176.354V3148.85H103.659V3222.79ZM178.185 3222.79H250.88V3148.85H178.185V3222.79ZM252.71 3222.79H325.405V3148.85H252.71V3222.79ZM327.235 3222.79H399.931V3148.85H327.235V3222.79ZM401.761 3222.79H474.456V3148.85H401.761V3222.79ZM476.286 3222.79H548.981V3148.85H476.286V3222.79ZM550.812 3222.79H623.506V3148.85H550.812V3222.79ZM625.337 3222.79H698.031V3148.85H625.337V3222.79ZM699.862 3222.79H772.557V3148.85H699.862V3222.79ZM774.388 3222.79H847.082V3148.85H774.388V3222.79ZM849.144 3222.79H921.607V3148.85H849.144V3222.79ZM923.669 3222.79H996.133V3148.85H923.669V3222.79ZM998.194 3222.79H1070.66V3148.85H998.194V3222.79ZM1072.72 3222.79H1145.18V3148.85H1072.72V3222.79ZM1147.24 3222.79H1219.71V3148.85H1147.24V3222.79ZM1221.77 3222.79H1294.23V3148.85H1221.77V3222.79ZM1296.29 3222.79H1368.76V3148.85H1296.29V3222.79ZM1370.82 3222.79H1443.29V3148.85H1370.82V3222.79ZM1445.35 3222.79H1518.04V3148.85H1445.35V3222.79ZM1519.87 3222.79H1592.57V3148.85H1519.87V3222.79ZM1594.4 3222.79H1667.09V3148.85H1594.4V3222.79ZM1668.92 3222.79H1741.62V3148.85H1668.92V3222.79ZM1743.45 3222.79H1816.14V3148.85H1743.45V3222.79ZM1817.97 3222.79H1890.67V3148.85H1817.97V3222.79ZM1892.5 3222.79H1965.19V3148.85H1892.5V3222.79ZM1967.02 3222.79H2039.72V3148.85H1967.02V3222.79ZM2041.55 3222.79H2114.24V3148.85H2041.55V3222.79ZM2116.07 3222.79H2188.77V3148.85H2116.07V3222.79ZM2190.6 3222.79H2263.29V3148.85H2190.6V3222.79ZM29.1338 3146.99H101.829V3073.06H29.1338V3146.99ZM103.659 3146.99H176.354V3073.06H103.659V3146.99ZM178.185 3146.99H250.88V3073.06H178.185V3146.99ZM252.71 3146.99H325.405V3073.06H252.71V3146.99ZM327.235 3146.99H399.931V3073.06H327.235V3146.99ZM401.761 3146.99H474.456V3073.06H401.761V3146.99ZM476.286 3146.99H548.981V3073.06H476.286V3146.99ZM550.812 3146.99H623.506V3073.06H550.812V3146.99ZM625.337 3146.99H698.031V3073.06H625.337V3146.99ZM699.862 3146.99H772.557V3073.06H699.862V3146.99ZM774.388 3146.99H847.082V3073.06H774.388V3146.99ZM849.144 3146.99H921.607V3073.06H849.144V3146.99ZM923.669 3146.99H996.133V3073.06H923.669V3146.99ZM998.194 3146.99H1070.66V3073.06H998.194V3146.99ZM1072.72 3146.99H1145.18V3073.06H1072.72V3146.99ZM1147.24 3146.99H1219.71V3073.06H1147.24V3146.99ZM1221.77 3146.99H1294.23V3073.06H1221.77V3146.99ZM1296.29 3146.99H1368.76V3073.06H1296.29V3146.99ZM1370.82 3146.99H1443.29V3073.06H1370.82V3146.99ZM1445.35 3146.99H1518.04V3073.06H1445.35V3146.99ZM1519.87 3146.99H1592.57V3073.06H1519.87V3146.99ZM1594.4 3146.99H1667.09V3073.06H1594.4V3146.99ZM1668.92 3146.99H1741.62V3073.06H1668.92V3146.99ZM1743.45 3146.99H1816.14V3073.06H1743.45V3146.99ZM1817.97 3146.99H1890.67V3073.06H1817.97V3146.99ZM1892.5 3146.99H1965.19V3073.06H1892.5V3146.99ZM1967.02 3146.99H2039.72V3073.06H1967.02V3146.99ZM2041.55 3146.99H2114.24V3073.06H2041.55V3146.99ZM2116.07 3146.99H2188.77V3073.06H2116.07V3146.99ZM2190.6 3146.99H2263.29V3073.06H2190.6V3146.99ZM29.1338 3071.2H101.829V2997.26H29.1338V3071.2ZM103.659 3071.2H176.354V2997.26H103.659V3071.2ZM178.185 3071.2H250.88V2997.26H178.185V3071.2ZM252.71 3071.2H325.405V2997.26H252.71V3071.2ZM327.235 3071.2H399.931V2997.26H327.235V3071.2ZM401.761 3071.2H474.456V2997.26H401.761V3071.2ZM476.286 3071.2H548.981V2997.26H476.286V3071.2ZM550.812 3071.2H623.506V2997.26H550.812V3071.2ZM625.337 3071.2H698.031V2997.26H625.337V3071.2ZM699.862 3071.2H772.557V2997.26H699.862V3071.2ZM774.388 3071.2H847.082V2997.26H774.388V3071.2ZM849.144 3071.2H921.607V2997.26H849.144V3071.2ZM923.669 3071.2H996.133V2997.26H923.669V3071.2ZM998.194 3071.2H1070.66V2997.26H998.194V3071.2ZM1072.72 3071.2H1145.18V2997.26H1072.72V3071.2ZM1147.24 3071.2H1219.71V2997.26H1147.24V3071.2ZM1221.77 3071.2H1294.23V2997.26H1221.77V3071.2ZM1296.29 3071.2H1368.76V2997.26H1296.29V3071.2ZM1370.82 3071.2H1443.29V2997.26H1370.82V3071.2ZM1445.35 3071.2H1518.04V2997.26H1445.35V3071.2ZM1519.87 3071.2H1592.57V2997.26H1519.87V3071.2ZM1594.4 3071.2H1667.09V2997.26H1594.4V3071.2ZM1668.92 3071.2H1741.62V2997.26H1668.92V3071.2ZM1743.45 3071.2H1816.14V2997.26H1743.45V3071.2ZM1817.97 3071.2H1890.67V2997.26H1817.97V3071.2ZM1892.5 3071.2H1965.19V2997.26H1892.5V3071.2ZM1967.02 3071.2H2039.72V2997.26H1967.02V3071.2ZM2041.55 3071.2H2114.24V2997.26H2041.55V3071.2ZM2116.07 3071.2H2188.77V2997.26H2116.07V3071.2ZM2190.6 3071.2H2263.29V2997.26H2190.6V3071.2ZM29.1338 2995.4H101.829V2923.81H29.1338V2995.4ZM103.659 2995.4H176.354V2923.81H103.659V2995.4ZM178.185 2995.4H250.88V2923.81H178.185V2995.4ZM252.71 2995.4H325.405V2923.81H252.71V2995.4ZM327.235 2995.4H399.931V2923.81H327.235V2995.4ZM401.761 2995.4H474.456V2923.81H401.761V2995.4ZM476.286 2995.4H548.981V2923.81H476.286V2995.4ZM550.812 2995.4H623.506V2923.81H550.812V2995.4ZM625.337 2995.4H698.031V2923.81H625.337V2995.4ZM699.862 2995.4H772.557V2923.81H699.862V2995.4ZM774.388 2995.4H847.082V2923.81H774.388V2995.4ZM849.144 2995.4H921.607V2923.81H849.144V2995.4ZM923.669 2995.4H996.133V2923.81H923.669V2995.4ZM998.194 2995.4H1070.66V2923.81H998.194V2995.4ZM1072.72 2995.4H1145.18V2923.81H1072.72V2995.4ZM1147.24 2995.4H1219.71V2923.81H1147.24V2995.4ZM1221.77 2995.4H1294.23V2923.81H1221.77V2995.4ZM1296.29 2995.4H1368.76V2923.81H1296.29V2995.4ZM1370.82 2995.4H1443.29V2923.81H1370.82V2995.4ZM1445.35 2995.4H1518.04V2923.81H1445.35V2995.4ZM1519.87 2995.4H1592.57V2923.81H1519.87V2995.4ZM1594.4 2995.4H1667.09V2923.81H1594.4V2995.4ZM1668.92 2995.4H1741.62V2923.81H1668.92V2995.4ZM1743.45 2995.4H1816.14V2923.81H1743.45V2995.4ZM1817.97 2995.4H1890.67V2923.81H1817.97V2995.4ZM1892.5 2995.4H1965.19V2923.81H1892.5V2995.4ZM1967.02 2995.4H2039.72V2923.81H1967.02V2995.4ZM2041.55 2995.4H2114.24V2923.81H2041.55V2995.4ZM2116.07 2995.4H2188.77V2923.81H2116.07V2995.4ZM2190.6 2995.4H2263.29V2923.81H2190.6V2995.4ZM29.1338 2921.95H101.829V2848.02H29.1338V2921.95ZM103.659 2921.95H176.354V2848.02H103.659V2921.95ZM178.185 2921.95H250.88V2848.02H178.185V2921.95ZM252.71 2921.95H325.405V2848.02H252.71V2921.95ZM327.235 2921.95H399.931V2848.02H327.235V2921.95ZM401.761 2921.95H474.456V2848.02H401.761V2921.95ZM476.286 2921.95H548.981V2848.02H476.286V2921.95ZM550.812 2921.95H623.506V2848.02H550.812V2921.95ZM625.337 2921.95H698.031V2848.02H625.337V2921.95ZM699.862 2921.95H772.557V2848.02H699.862V2921.95ZM774.388 2921.95H847.082V2848.02H774.388V2921.95ZM849.144 2921.95H921.607V2848.02H849.144V2921.95ZM923.669 2921.95H996.133V2848.02H923.669V2921.95ZM998.194 2921.95H1070.66V2848.02H998.194V2921.95ZM1072.72 2921.95H1145.18V2848.02H1072.72V2921.95ZM1147.24 2921.95H1219.71V2848.02H1147.24V2921.95ZM1221.77 2921.95H1294.23V2848.02H1221.77V2921.95ZM1296.29 2921.95H1368.76V2848.02H1296.29V2921.95ZM1370.82 2921.95H1443.29V2848.02H1370.82V2921.95ZM1445.35 2921.95H1518.04V2848.02H1445.35V2921.95ZM1519.87 2921.95H1592.57V2848.02H1519.87V2921.95ZM1594.4 2921.95H1667.09V2848.02H1594.4V2921.95ZM1668.92 2921.95H1741.62V2848.02H1668.92V2921.95ZM1743.45 2921.95H1816.14V2848.02H1743.45V2921.95ZM1817.97 2921.95H1890.67V2848.02H1817.97V2921.95ZM1892.5 2921.95H1965.19V2848.02H1892.5V2921.95ZM1967.02 2921.95H2039.72V2848.02H1967.02V2921.95ZM2041.55 2921.95H2114.24V2848.02H2041.55V2921.95ZM2116.07 2921.95H2188.77V2848.02H2116.07V2921.95ZM2190.6 2921.95H2263.29V2848.02H2190.6V2921.95ZM29.1338 2846.16H101.829V2772.22H29.1338V2846.16ZM103.659 2846.16H176.354V2772.22H103.659V2846.16ZM178.185 2846.16H250.88V2772.22H178.185V2846.16ZM252.71 2846.16H325.405V2772.22H252.71V2846.16ZM327.235 2846.16H399.931V2772.22H327.235V2846.16ZM401.761 2846.16H474.456V2772.22H401.761V2846.16ZM476.286 2846.16H548.981V2772.22H476.286V2846.16ZM550.812 2846.16H623.506V2772.22H550.812V2846.16ZM625.337 2846.16H698.031V2772.22H625.337V2846.16ZM699.862 2846.16H772.557V2772.22H699.862V2846.16ZM774.388 2846.16H847.082V2772.22H774.388V2846.16ZM849.144 2846.16H921.607V2772.22H849.144V2846.16ZM923.669 2846.16H996.133V2772.22H923.669V2846.16ZM998.194 2846.16H1070.66V2772.22H998.194V2846.16ZM1072.72 2846.16H1145.18V2772.22H1072.72V2846.16ZM1147.24 2846.16H1219.71V2772.22H1147.24V2846.16ZM1221.77 2846.16H1294.23V2772.22H1221.77V2846.16ZM1296.29 2846.16H1368.76V2772.22H1296.29V2846.16ZM1370.82 2846.16H1443.29V2772.22H1370.82V2846.16ZM1445.35 2846.16H1518.04V2772.22H1445.35V2846.16ZM1519.87 2846.16H1592.57V2772.22H1519.87V2846.16ZM1594.4 2846.16H1667.09V2772.22H1594.4V2846.16ZM1668.92 2846.16H1741.62V2772.22H1668.92V2846.16ZM1743.45 2846.16H1816.14V2772.22H1743.45V2846.16ZM1817.97 2846.16H1890.67V2772.22H1817.97V2846.16ZM1892.5 2846.16H1965.19V2772.22H1892.5V2846.16ZM1967.02 2846.16H2039.72V2772.22H1967.02V2846.16ZM2041.55 2846.16H2114.24V2772.22H2041.55V2846.16ZM2116.07 2846.16H2188.77V2772.22H2116.07V2846.16ZM2190.6 2846.16H2263.29V2772.22H2190.6V2846.16ZM29.1338 2770.36H101.829V2696.43H29.1338V2770.36ZM103.659 2770.36H176.354V2696.43H103.659V2770.36ZM178.185 2770.36H250.88V2696.43H178.185V2770.36ZM252.71 2770.36H325.405V2696.43H252.71V2770.36ZM327.235 2770.36H399.931V2696.43H327.235V2770.36ZM401.761 2770.36H474.456V2696.43H401.761V2770.36ZM476.286 2770.36H548.981V2696.43H476.286V2770.36ZM550.812 2770.36H623.506V2696.43H550.812V2770.36ZM625.337 2770.36H698.031V2696.43H625.337V2770.36ZM699.862 2770.36H772.557V2696.43H699.862V2770.36ZM774.388 2770.36H847.082V2696.43H774.388V2770.36ZM849.144 2770.36H921.607V2696.43H849.144V2770.36ZM923.669 2770.36H996.133V2696.43H923.669V2770.36ZM998.194 2770.36H1070.66V2696.43H998.194V2770.36ZM1072.72 2770.36H1145.18V2696.43H1072.72V2770.36ZM1147.24 2770.36H1219.71V2696.43H1147.24V2770.36ZM1221.77 2770.36H1294.23V2696.43H1221.77V2770.36ZM1296.29 2770.36H1368.76V2696.43H1296.29V2770.36ZM1370.82 2770.36H1443.29V2696.43H1370.82V2770.36ZM1445.35 2770.36H1518.04V2696.43H1445.35V2770.36ZM1519.87 2770.36H1592.57V2696.43H1519.87V2770.36ZM1594.4 2770.36H1667.09V2696.43H1594.4V2770.36ZM1668.92 2770.36H1741.62V2696.43H1668.92V2770.36ZM1743.45 2770.36H1816.14V2696.43H1743.45V2770.36ZM1817.97 2770.36H1890.67V2696.43H1817.97V2770.36ZM1892.5 2770.36H1965.19V2696.43H1892.5V2770.36ZM1967.02 2770.36H2039.72V2696.43H1967.02V2770.36ZM2041.55 2770.36H2114.24V2696.43H2041.55V2770.36ZM2116.07 2770.36H2188.77V2696.43H2116.07V2770.36ZM2190.6 2770.36H2263.29V2696.43H2190.6V2770.36ZM29.1338 2694.57H101.829V2620.63H29.1338V2694.57ZM103.659 2694.57H176.354V2620.63H103.659V2694.57ZM178.185 2694.57H250.88V2620.63H178.185V2694.57ZM252.71 2694.57H325.405V2620.63H252.71V2694.57ZM327.235 2694.57H399.931V2620.63H327.235V2694.57ZM401.761 2694.57H474.456V2620.63H401.761V2694.57ZM476.286 2694.57H548.981V2620.63H476.286V2694.57ZM550.812 2694.57H623.506V2620.63H550.812V2694.57ZM625.337 2694.57H698.031V2620.63H625.337V2694.57ZM699.862 2694.57H772.557V2620.63H699.862V2694.57ZM774.388 2694.57H847.082V2620.63H774.388V2694.57ZM849.144 2694.57H921.607V2620.63H849.144V2694.57ZM923.669 2694.57H996.133V2620.63H923.669V2694.57ZM998.194 2694.57H1070.66V2620.63H998.194V2694.57ZM1072.72 2694.57H1145.18V2620.63H1072.72V2694.57ZM1147.24 2694.57H1219.71V2620.63H1147.24V2694.57ZM1221.77 2694.57H1294.23V2620.63H1221.77V2694.57ZM1296.29 2694.57H1368.76V2620.63H1296.29V2694.57ZM1370.82 2694.57H1443.29V2620.63H1370.82V2694.57ZM1445.35 2694.57H1518.04V2620.63H1445.35V2694.57ZM1519.87 2694.57H1592.57V2620.63H1519.87V2694.57ZM1594.4 2694.57H1667.09V2620.63H1594.4V2694.57ZM1668.92 2694.57H1741.62V2620.63H1668.92V2694.57ZM1743.45 2694.57H1816.14V2620.63H1743.45V2694.57ZM1817.97 2694.57H1890.67V2620.63H1817.97V2694.57ZM1892.5 2694.57H1965.19V2620.63H1892.5V2694.57ZM1967.02 2694.57H2039.72V2620.63H1967.02V2694.57ZM2041.55 2694.57H2114.24V2620.63H2041.55V2694.57ZM2116.07 2694.57H2188.77V2620.63H2116.07V2694.57ZM2190.6 2694.57H2263.29V2620.63H2190.6V2694.57ZM29.1338 2618.77H101.829V2544.83H29.1338V2618.77ZM103.659 2618.77H176.354V2544.83H103.659V2618.77ZM178.185 2618.77H250.88V2544.83H178.185V2618.77ZM252.71 2618.77H325.405V2544.83H252.71V2618.77ZM327.235 2618.77H399.931V2544.83H327.235V2618.77ZM401.761 2618.77H474.456V2544.83H401.761V2618.77ZM476.286 2618.77H548.981V2544.83H476.286V2618.77ZM550.812 2618.77H623.506V2544.83H550.812V2618.77ZM625.337 2618.77H698.031V2544.83H625.337V2618.77ZM699.862 2618.77H772.557V2544.83H699.862V2618.77ZM774.388 2618.77H847.082V2544.83H774.388V2618.77ZM849.144 2618.77H921.607V2544.83H849.144V2618.77ZM923.669 2618.77H996.133V2544.83H923.669V2618.77ZM998.194 2618.77H1070.66V2544.83H998.194V2618.77ZM1072.72 2618.77H1145.18V2544.83H1072.72V2618.77ZM1147.24 2618.77H1219.71V2544.83H1147.24V2618.77ZM1221.77 2618.77H1294.23V2544.83H1221.77V2618.77ZM1296.29 2618.77H1368.76V2544.83H1296.29V2618.77ZM1370.82 2618.77H1443.29V2544.83H1370.82V2618.77ZM1445.35 2618.77H1518.04V2544.83H1445.35V2618.77ZM1519.87 2618.77H1592.57V2544.83H1519.87V2618.77ZM1594.4 2618.77H1667.09V2544.83H1594.4V2618.77ZM1668.92 2618.77H1741.62V2544.83H1668.92V2618.77ZM1743.45 2618.77H1816.14V2544.83H1743.45V2618.77ZM1817.97 2618.77H1890.67V2544.83H1817.97V2618.77ZM1892.5 2618.77H1965.19V2544.83H1892.5V2618.77ZM1967.02 2618.77H2039.72V2544.83H1967.02V2618.77ZM2041.55 2618.77H2114.24V2544.83H2041.55V2618.77ZM2116.07 2618.77H2188.77V2544.83H2116.07V2618.77ZM2190.6 2618.77H2263.29V2544.83H2190.6V2618.77ZM29.1338 2542.97H101.829V2469.04H29.1338V2542.97ZM103.659 2542.97H176.354V2469.04H103.659V2542.97ZM178.185 2542.97H250.88V2469.04H178.185V2542.97ZM252.71 2542.97H325.405V2469.04H252.71V2542.97ZM327.235 2542.97H399.931V2469.04H327.235V2542.97ZM401.761 2542.97H474.456V2469.04H401.761V2542.97ZM476.286 2542.97H548.981V2469.04H476.286V2542.97ZM550.812 2542.97H623.506V2469.04H550.812V2542.97ZM625.337 2542.97H698.031V2469.04H625.337V2542.97ZM699.862 2542.97H772.557V2469.04H699.862V2542.97ZM774.388 2542.97H847.082V2469.04H774.388V2542.97ZM849.144 2542.97H921.607V2469.04H849.144V2542.97ZM923.669 2542.97H996.133V2469.04H923.669V2542.97ZM998.194 2542.97H1070.66V2469.04H998.194V2542.97ZM1072.72 2542.97H1145.18V2469.04H1072.72V2542.97ZM1147.24 2542.97H1219.71V2469.04H1147.24V2542.97ZM1221.77 2542.97H1294.23V2469.04H1221.77V2542.97ZM1296.29 2542.97H1368.76V2469.04H1296.29V2542.97ZM1370.82 2542.97H1443.29V2469.04H1370.82V2542.97ZM1445.35 2542.97H1518.04V2469.04H1445.35V2542.97ZM1519.87 2542.97H1592.57V2469.04H1519.87V2542.97ZM1594.4 2542.97H1667.09V2469.04H1594.4V2542.97ZM1668.92 2542.97H1741.62V2469.04H1668.92V2542.97ZM1743.45 2542.97H1816.14V2469.04H1743.45V2542.97ZM1817.97 2542.97H1890.67V2469.04H1817.97V2542.97ZM1892.5 2542.97H1965.19V2469.04H1892.5V2542.97ZM1967.02 2542.97H2039.72V2469.04H1967.02V2542.97ZM2041.55 2542.97H2114.24V2469.04H2041.55V2542.97ZM2116.07 2542.97H2188.77V2469.04H2116.07V2542.97ZM2190.6 2542.97H2263.29V2469.04H2190.6V2542.97ZM29.1338 2467.18H101.829V2393.24H29.1338V2467.18ZM103.659 2467.18H176.354V2393.24H103.659V2467.18ZM178.185 2467.18H250.88V2393.24H178.185V2467.18ZM252.71 2467.18H325.405V2393.24H252.71V2467.18ZM327.235 2467.18H399.931V2393.24H327.235V2467.18ZM401.761 2467.18H474.456V2393.24H401.761V2467.18ZM476.286 2467.18H548.981V2393.24H476.286V2467.18ZM550.812 2467.18H623.506V2393.24H550.812V2467.18ZM625.337 2467.18H698.031V2393.24H625.337V2467.18ZM699.862 2467.18H772.557V2393.24H699.862V2467.18ZM774.388 2467.18H847.082V2393.24H774.388V2467.18ZM849.144 2467.18H921.607V2393.24H849.144V2467.18ZM923.669 2467.18H996.133V2393.24H923.669V2467.18ZM998.194 2467.18H1070.66V2393.24H998.194V2467.18ZM1072.72 2467.18H1145.18V2393.24H1072.72V2467.18ZM1147.24 2467.18H1219.71V2393.24H1147.24V2467.18ZM1221.77 2467.18H1294.23V2393.24H1221.77V2467.18ZM1296.29 2467.18H1368.76V2393.24H1296.29V2467.18ZM1370.82 2467.18H1443.29V2393.24H1370.82V2467.18ZM1445.35 2467.18H1518.04V2393.24H1445.35V2467.18ZM1519.87 2467.18H1592.57V2393.24H1519.87V2467.18ZM1594.4 2467.18H1667.09V2393.24H1594.4V2467.18ZM1668.92 2467.18H1741.62V2393.24H1668.92V2467.18ZM1743.45 2467.18H1816.14V2393.24H1743.45V2467.18ZM1817.97 2467.18H1890.67V2393.24H1817.97V2467.18ZM1892.5 2467.18H1965.19V2393.24H1892.5V2467.18ZM1967.02 2467.18H2039.72V2393.24H1967.02V2467.18ZM2041.55 2467.18H2114.24V2393.24H2041.55V2467.18ZM2116.07 2467.18H2188.77V2393.24H2116.07V2467.18ZM2190.6 2467.18H2263.29V2393.24H2190.6V2467.18ZM29.1338 2391.38H101.829V2317.45H29.1338V2391.38ZM103.659 2391.38H176.354V2317.45H103.659V2391.38ZM178.185 2391.38H250.88V2317.45H178.185V2391.38ZM252.71 2391.38H325.405V2317.45H252.71V2391.38ZM327.235 2391.38H399.931V2317.45H327.235V2391.38ZM401.761 2391.38H474.456V2317.45H401.761V2391.38ZM476.286 2391.38H548.981V2317.45H476.286V2391.38ZM550.812 2391.38H623.506V2317.45H550.812V2391.38ZM625.337 2391.38H698.031V2317.45H625.337V2391.38ZM699.862 2391.38H772.557V2317.45H699.862V2391.38ZM774.388 2391.38H847.082V2317.45H774.388V2391.38ZM849.144 2391.38H921.607V2317.45H849.144V2391.38ZM923.669 2391.38H996.133V2317.45H923.669V2391.38ZM998.194 2391.38H1070.66V2317.45H998.194V2391.38ZM1072.72 2391.38H1145.18V2317.45H1072.72V2391.38ZM1147.24 2391.38H1219.71V2317.45H1147.24V2391.38ZM1221.77 2391.38H1294.23V2317.45H1221.77V2391.38ZM1296.29 2391.38H1368.76V2317.45H1296.29V2391.38ZM1370.82 2391.38H1443.29V2317.45H1370.82V2391.38ZM1445.35 2391.38H1518.04V2317.45H1445.35V2391.38ZM1519.87 2391.38H1592.57V2317.45H1519.87V2391.38ZM1594.4 2391.38H1667.09V2317.45H1594.4V2391.38ZM1668.92 2391.38H1741.62V2317.45H1668.92V2391.38ZM1743.45 2391.38H1816.14V2317.45H1743.45V2391.38ZM1817.97 2391.38H1890.67V2317.45H1817.97V2391.38ZM1892.5 2391.38H1965.19V2317.45H1892.5V2391.38ZM1967.02 2391.38H2039.72V2317.45H1967.02V2391.38ZM2041.55 2391.38H2114.24V2317.45H2041.55V2391.38ZM2116.07 2391.38H2188.77V2317.45H2116.07V2391.38ZM2190.6 2391.38H2263.29V2317.45H2190.6V2391.38ZM29.1338 2315.58H101.829V2241.65H29.1338V2315.58ZM103.659 2315.58H176.354V2241.65H103.659V2315.58ZM178.185 2315.58H250.88V2241.65H178.185V2315.58ZM252.71 2315.58H325.405V2241.65H252.71V2315.58ZM327.235 2315.58H399.931V2241.65H327.235V2315.58ZM401.761 2315.58H474.456V2241.65H401.761V2315.58ZM476.286 2315.58H548.981V2241.65H476.286V2315.58ZM550.812 2315.58H623.506V2241.65H550.812V2315.58ZM625.337 2315.58H698.031V2241.65H625.337V2315.58ZM699.862 2315.58H772.557V2241.65H699.862V2315.58ZM774.388 2315.58H847.082V2241.65H774.388V2315.58ZM849.144 2315.58H921.607V2241.65H849.144V2315.58ZM923.669 2315.58H996.133V2241.65H923.669V2315.58ZM998.194 2315.58H1070.66V2241.65H998.194V2315.58ZM1072.72 2315.58H1145.18V2241.65H1072.72V2315.58ZM1147.24 2315.58H1219.71V2241.65H1147.24V2315.58ZM1221.77 2315.58H1294.23V2241.65H1221.77V2315.58ZM1296.29 2315.58H1368.76V2241.65H1296.29V2315.58ZM1370.82 2315.58H1443.29V2241.65H1370.82V2315.58ZM1445.35 2315.58H1518.04V2241.65H1445.35V2315.58ZM1519.87 2315.58H1592.57V2241.65H1519.87V2315.58ZM1594.4 2315.58H1667.09V2241.65H1594.4V2315.58ZM1668.92 2315.58H1741.62V2241.65H1668.92V2315.58ZM1743.45 2315.58H1816.14V2241.65H1743.45V2315.58ZM1817.97 2315.58H1890.67V2241.65H1817.97V2315.58ZM1892.5 2315.58H1965.19V2241.65H1892.5V2315.58ZM1967.02 2315.58H2039.72V2241.65H1967.02V2315.58ZM2041.55 2315.58H2114.24V2241.65H2041.55V2315.58ZM2116.07 2315.58H2188.77V2241.65H2116.07V2315.58ZM2190.6 2315.58H2263.29V2241.65H2190.6V2315.58ZM29.1338 2239.79H101.829V2165.85H29.1338V2239.79ZM103.659 2239.79H176.354V2165.85H103.659V2239.79ZM178.185 2239.79H250.88V2165.85H178.185V2239.79ZM252.71 2239.79H325.405V2165.85H252.71V2239.79ZM327.235 2239.79H399.931V2165.85H327.235V2239.79ZM401.761 2239.79H474.456V2165.85H401.761V2239.79ZM476.286 2239.79H548.981V2165.85H476.286V2239.79ZM550.812 2239.79H623.506V2165.85H550.812V2239.79ZM625.337 2239.79H698.031V2165.85H625.337V2239.79ZM699.862 2239.79H772.557V2165.85H699.862V2239.79ZM774.388 2239.79H847.082V2165.85H774.388V2239.79ZM849.144 2239.79H921.607V2165.85H849.144V2239.79ZM923.669 2239.79H996.133V2165.85H923.669V2239.79ZM998.194 2239.79H1070.66V2165.85H998.194V2239.79ZM1072.72 2239.79H1145.18V2165.85H1072.72V2239.79ZM1147.24 2239.79H1219.71V2165.85H1147.24V2239.79ZM1221.77 2239.79H1294.23V2165.85H1221.77V2239.79ZM1296.29 2239.79H1368.76V2165.85H1296.29V2239.79ZM1370.82 2239.79H1443.29V2165.85H1370.82V2239.79ZM1445.35 2239.79H1518.04V2165.85H1445.35V2239.79ZM1519.87 2239.79H1592.57V2165.85H1519.87V2239.79ZM1594.4 2239.79H1667.09V2165.85H1594.4V2239.79ZM1668.92 2239.79H1741.62V2165.85H1668.92V2239.79ZM1743.45 2239.79H1816.14V2165.85H1743.45V2239.79ZM1817.97 2239.79H1890.67V2165.85H1817.97V2239.79ZM1892.5 2239.79H1965.19V2165.85H1892.5V2239.79ZM1967.02 2239.79H2039.72V2165.85H1967.02V2239.79ZM2041.55 2239.79H2114.24V2165.85H2041.55V2239.79ZM2116.07 2239.79H2188.77V2165.85H2116.07V2239.79ZM2190.6 2239.79H2263.29V2165.85H2190.6V2239.79ZM29.1338 2163.99H101.829V2090.06H29.1338V2163.99ZM103.659 2163.99H176.354V2090.06H103.659V2163.99ZM178.185 2163.99H250.88V2090.06H178.185V2163.99ZM252.71 2163.99H325.405V2090.06H252.71V2163.99ZM327.235 2163.99H399.931V2090.06H327.235V2163.99ZM401.761 2163.99H474.456V2090.06H401.761V2163.99ZM476.286 2163.99H548.981V2090.06H476.286V2163.99ZM550.812 2163.99H623.506V2090.06H550.812V2163.99ZM625.337 2163.99H698.031V2090.06H625.337V2163.99ZM699.862 2163.99H772.557V2090.06H699.862V2163.99ZM774.388 2163.99H847.082V2090.06H774.388V2163.99ZM849.144 2163.99H921.607V2090.06H849.144V2163.99ZM923.669 2163.99H996.133V2090.06H923.669V2163.99ZM998.194 2163.99H1070.66V2090.06H998.194V2163.99ZM1072.72 2163.99H1145.18V2090.06H1072.72V2163.99ZM1147.24 2163.99H1219.71V2090.06H1147.24V2163.99ZM1221.77 2163.99H1294.23V2090.06H1221.77V2163.99ZM1296.29 2163.99H1368.76V2090.06H1296.29V2163.99ZM1370.82 2163.99H1443.29V2090.06H1370.82V2163.99ZM1445.35 2163.99H1518.04V2090.06H1445.35V2163.99ZM1519.87 2163.99H1592.57V2090.06H1519.87V2163.99ZM1594.4 2163.99H1667.09V2090.06H1594.4V2163.99ZM1668.92 2163.99H1741.62V2090.06H1668.92V2163.99ZM1743.45 2163.99H1816.14V2090.06H1743.45V2163.99ZM1817.97 2163.99H1890.67V2090.06H1817.97V2163.99ZM1892.5 2163.99H1965.19V2090.06H1892.5V2163.99ZM1967.02 2163.99H2039.72V2090.06H1967.02V2163.99ZM2041.55 2163.99H2114.24V2090.06H2041.55V2163.99ZM2116.07 2163.99H2188.77V2090.06H2116.07V2163.99ZM2190.6 2163.99H2263.29V2090.06H2190.6V2163.99ZM29.1338 2088.2H101.829V2014.26H29.1338V2088.2ZM103.659 2088.2H176.354V2014.26H103.659V2088.2ZM178.185 2088.2H250.88V2014.26H178.185V2088.2ZM252.71 2088.2H325.405V2014.26H252.71V2088.2ZM327.235 2088.2H399.931V2014.26H327.235V2088.2ZM401.761 2088.2H474.456V2014.26H401.761V2088.2ZM476.286 2088.2H548.981V2014.26H476.286V2088.2ZM550.812 2088.2H623.506V2014.26H550.812V2088.2ZM625.337 2088.2H698.031V2014.26H625.337V2088.2ZM699.862 2088.2H772.557V2014.26H699.862V2088.2ZM774.388 2088.2H847.082V2014.26H774.388V2088.2ZM849.144 2088.2H921.607V2014.26H849.144V2088.2ZM923.669 2088.2H996.133V2014.26H923.669V2088.2ZM998.194 2088.2H1070.66V2014.26H998.194V2088.2ZM1072.72 2088.2H1145.18V2014.26H1072.72V2088.2ZM1147.24 2088.2H1219.71V2014.26H1147.24V2088.2ZM1221.77 2088.2H1294.23V2014.26H1221.77V2088.2ZM1296.29 2088.2H1368.76V2014.26H1296.29V2088.2ZM1370.82 2088.2H1443.29V2014.26H1370.82V2088.2ZM1445.35 2088.2H1518.04V2014.26H1445.35V2088.2ZM1519.87 2088.2H1592.57V2014.26H1519.87V2088.2ZM1594.4 2088.2H1667.09V2014.26H1594.4V2088.2ZM1668.92 2088.2H1741.62V2014.26H1668.92V2088.2ZM1743.45 2088.2H1816.14V2014.26H1743.45V2088.2ZM1817.97 2088.2H1890.67V2014.26H1817.97V2088.2ZM1892.5 2088.2H1965.19V2014.26H1892.5V2088.2ZM1967.02 2088.2H2039.72V2014.26H1967.02V2088.2ZM2041.55 2088.2H2114.24V2014.26H2041.55V2088.2ZM2116.07 2088.2H2188.77V2014.26H2116.07V2088.2ZM2190.6 2088.2H2263.29V2014.26H2190.6V2088.2ZM29.1338 2012.4H101.829V1940.26H29.1338V2012.4ZM103.659 2012.4H176.354V1940.26H103.659V2012.4ZM178.185 2012.4H250.88V1940.26H178.185V2012.4ZM252.71 2012.4H325.405V1940.26H252.71V2012.4ZM327.235 2012.4H399.931V1940.26H327.235V2012.4ZM401.761 2012.4H474.456V1940.26H401.761V2012.4ZM476.286 2012.4H548.981V1940.26H476.286V2012.4ZM550.812 2012.4H623.506V1940.26H550.812V2012.4ZM625.337 2012.4H698.031V1940.26H625.337V2012.4ZM699.862 2012.4H772.557V1940.26H699.862V2012.4ZM774.388 2012.4H847.082V1940.26H774.388V2012.4ZM849.144 2012.4H921.607V1940.26H849.144V2012.4ZM923.669 2012.4H996.133V1940.26H923.669V2012.4ZM998.194 2012.4H1070.66V1940.26H998.194V2012.4ZM1072.72 2012.4H1145.18V1940.26H1072.72V2012.4ZM1147.25 1940.26L1147.24 1968V2012.4H1219.71V1940.26H1147.25ZM1221.77 2012.4H1294.23V1940.26H1221.77V2012.4ZM1296.29 2012.4H1368.76V1940.26H1296.29V2012.4ZM1370.82 2012.4H1443.29V1940.26H1370.82V2012.4ZM1445.35 2012.4H1518.04V1940.26H1445.35V2012.4ZM1519.87 2012.4H1592.57V1940.26H1519.87V2012.4ZM1594.4 2012.4H1667.09V1940.26H1594.4V2012.4ZM1668.92 2012.4H1741.62V1940.26H1668.92V2012.4ZM1743.45 2012.4H1816.14V1940.26H1743.45V2012.4ZM1817.97 2012.4H1890.67V1940.26H1817.97V2012.4ZM1892.5 2012.4H1965.19V1940.26H1892.5V2012.4ZM1967.02 2012.4H2039.72V1947H2039.72V1940.26H1967.02V2012.4ZM2041.55 2012.4H2114.24V1947H2114.24V1940.26H2041.55V2012.4ZM2116.07 2012.4H2188.77V1940.26H2116.07V2012.4ZM2190.6 2012.4H2263.29V1940.26H2190.6V2012.4ZM29.1338 1938.43H101.829V1865.67H29.1338V1938.43ZM103.659 1938.43H176.354V1865.67H103.659V1938.43ZM178.185 1938.43H250.88V1865.67H178.185V1938.43ZM252.71 1938.43H325.405V1865.67H252.71V1938.43ZM327.235 1938.43H399.931V1865.67H327.235V1938.43ZM401.761 1938.43H474.456V1865.67H401.761V1938.43ZM476.286 1938.43H548.981V1865.67H476.286V1938.43ZM550.812 1938.43H623.506V1865.67H550.812V1938.43ZM625.337 1938.43H698.031V1865.67H625.337V1938.43ZM699.862 1938.43H772.557V1865.67H699.862V1938.43ZM774.388 1938.43H847.082V1865.67H774.388V1938.43ZM849.144 1938.43H921.607V1865.67H849.144V1938.43ZM923.669 1938.43H996.133V1865.67H923.669V1938.43ZM998.194 1938.43H1070.66V1865.67H998.194V1938.43ZM1072.72 1938.43H1145.18V1865.67H1072.72V1938.43ZM1147.25 1938.43H1219.71V1865.67H1147.25V1938.43ZM1221.77 1938.43H1294.23V1865.67H1221.77V1938.43ZM1296.29 1938.43H1368.76V1865.67H1296.29V1938.43ZM1370.82 1938.43H1443.29V1865.67H1370.82V1938.43ZM1445.35 1938.43H1518.04V1865.67H1445.35V1938.43ZM1519.87 1938.43H1592.57V1865.67H1519.87V1938.43ZM1594.4 1938.43H1667.09V1865.67H1594.4V1938.43ZM1668.92 1938.43H1741.62V1865.67H1668.92V1938.43ZM1743.45 1938.43H1816.14V1865.67H1743.45V1938.43ZM1817.97 1938.43H1890.67V1865.67H1817.97V1938.43ZM1892.5 1938.43H1965.19V1865.67H1892.5V1938.43ZM1967.02 1938.43H2039.72V1865.67H1967.02V1938.43ZM2041.55 1938.43H2114.24V1865.67H2041.55V1938.43ZM2116.07 1938.43H2188.77V1865.67H2116.07V1938.43ZM2190.6 1938.43H2263.29V1865.67H2190.6V1938.43ZM29.1338 1863.84H101.829V1791.08H29.1338V1863.84ZM103.659 1863.84H176.354V1791.08H103.659V1863.84ZM178.185 1863.84H250.88V1791.08H178.185V1863.84ZM252.71 1863.84H325.405V1791.08H252.71V1863.84ZM327.235 1863.84H399.931V1791.08H327.235V1863.84ZM401.761 1863.84H474.456V1791.08H401.761V1863.84ZM476.286 1863.84H548.981V1791.08H476.286V1863.84ZM550.812 1863.84H623.506V1791.08H550.812V1863.84ZM625.337 1863.84H698.031V1791.08H625.337V1863.84ZM699.862 1863.84H772.557V1791.08H699.862V1863.84ZM774.388 1863.84H847.082V1791.08H774.388V1863.84ZM849.144 1863.84H921.607V1791.08H849.144V1863.84ZM923.669 1863.84H996.133V1791.08H923.669V1863.84ZM998.194 1863.84H1070.66V1791.08H998.194V1863.84ZM1072.72 1863.84H1145.18V1791.08H1072.72V1863.84ZM1147.25 1863.84H1219.71V1791.08H1147.25V1863.84ZM1221.77 1863.84H1294.23V1791.08H1221.77V1863.84ZM1296.29 1863.84H1368.76V1791.08H1296.29V1863.84ZM1370.82 1863.84H1443.29V1791.08H1370.82V1863.84ZM1445.35 1863.84H1518.04V1791.08H1445.35V1863.84ZM1519.87 1863.84H1592.57V1791.08H1519.87V1863.84ZM1594.4 1863.84H1667.09V1791.08H1594.4V1863.84ZM1668.92 1863.84H1741.62V1791.08H1668.92V1863.84ZM1743.45 1863.84H1816.14V1791.08H1743.45V1863.84ZM1817.97 1863.84H1890.67V1791.08H1817.97V1863.84ZM1892.5 1863.84H1965.19V1791.08H1892.5V1863.84ZM1967.02 1863.84H2039.72V1791.08H1967.02V1863.84ZM2041.55 1863.84H2114.24V1791.08H2041.55V1863.84ZM2116.07 1863.84H2188.77V1791.08H2116.07V1863.84ZM2190.6 1863.84H2263.29V1791.08H2190.6V1863.84ZM29.1338 1789.25H101.829V1716.5H29.1338V1789.25ZM103.659 1789.25H176.354V1716.5H103.659V1789.25ZM178.185 1789.25H250.88V1716.5H178.185V1789.25ZM252.71 1789.25H325.405V1716.5H252.71V1789.25ZM327.235 1789.25H399.931V1716.5H327.235V1789.25ZM401.761 1789.25H474.456V1716.5H401.761V1789.25ZM476.286 1789.25H548.981V1716.5H476.286V1789.25ZM550.812 1789.25H623.506V1716.5H550.812V1789.25ZM625.337 1789.25H698.031V1716.5H625.337V1789.25ZM699.862 1789.25H772.557V1716.5H699.862V1789.25ZM774.388 1789.25H847.082V1716.5H774.388V1789.25ZM849.144 1789.25H921.607V1716.5H849.144V1789.25ZM923.669 1789.25H996.133V1716.5H923.669V1789.25ZM998.194 1789.25H1070.66V1716.5H998.194V1789.25ZM1072.72 1789.25H1145.18V1716.5H1072.72V1789.25ZM1147.25 1789.25H1219.71V1716.5H1147.25V1789.25ZM1221.77 1789.25H1294.23V1716.5H1221.77V1789.25ZM1296.29 1789.25H1368.76V1716.5H1296.29V1789.25ZM1370.82 1789.25H1443.29V1716.5H1370.82V1789.25ZM1445.35 1789.25H1518.04V1716.5H1445.35V1789.25ZM1519.87 1789.25H1592.57V1716.5H1519.87V1789.25ZM1594.4 1789.25H1667.09V1716.5H1594.4V1789.25ZM1668.92 1789.25H1741.62V1716.5H1668.92V1789.25ZM1743.45 1789.25H1816.14V1716.5H1743.45V1789.25ZM1817.97 1789.25H1890.67V1716.5H1817.97V1789.25ZM1892.5 1789.25H1965.19V1716.5H1892.5V1789.25ZM1967.02 1789.25H2039.72V1716.5H1967.02V1789.25ZM2041.55 1789.25H2114.24V1716.5H2041.55V1789.25ZM2116.07 1789.25H2188.77V1716.5H2116.07V1789.25ZM2190.6 1789.25H2263.29V1716.5H2190.6V1789.25ZM29.1338 1714.66H101.829V1641.91H29.1338V1714.66ZM103.659 1714.66H176.354V1641.91H103.659V1714.66ZM178.185 1714.66H250.88V1641.91H178.185V1714.66ZM252.71 1714.66H325.405V1641.91H252.71V1714.66ZM327.235 1714.66H399.931V1641.91H327.235V1714.66ZM401.761 1714.66H474.456V1641.91H401.761V1714.66ZM476.286 1714.66H548.981V1641.91H476.286V1714.66ZM550.812 1714.66H623.506V1641.91H550.812V1714.66ZM625.337 1714.66H698.031V1641.91H625.337V1714.66ZM699.862 1714.66H772.557V1641.91H699.862V1714.66ZM774.388 1714.66H847.082V1641.91H774.388V1714.66ZM849.144 1714.66H921.607V1641.91H849.144V1714.66ZM923.669 1714.66H996.133V1641.91H923.669V1714.66ZM998.194 1714.66H1070.66V1641.91H998.194V1714.66ZM1072.72 1714.66H1145.18V1641.91H1072.72V1714.66ZM1147.25 1714.66H1219.71V1641.91H1147.25V1714.66ZM1221.77 1714.66H1294.23V1641.91H1221.77V1714.66ZM1296.29 1714.66H1368.76V1641.91H1296.29V1714.66ZM1370.82 1714.66H1443.29V1641.91H1370.82V1714.66ZM1445.35 1714.66H1518.04V1641.91H1445.35V1714.66ZM1519.87 1714.66H1592.57V1641.91H1519.87V1714.66ZM1594.4 1714.66H1667.09V1641.91H1594.4V1714.66ZM1668.92 1714.66H1741.62V1641.91H1668.92V1714.66ZM1743.45 1714.66H1816.14V1641.91H1743.45V1714.66ZM1817.97 1714.66H1890.67V1641.91H1817.97V1714.66ZM1892.5 1714.66H1965.19V1641.91H1892.5V1714.66ZM1967.02 1714.66H2039.72V1641.91H1967.02V1714.66ZM2041.55 1714.66H2114.24V1641.91H2041.55V1714.66ZM2116.07 1714.66H2188.77V1641.91H2116.07V1714.66ZM2190.6 1714.66H2263.29V1641.91H2190.6V1714.66ZM29.1338 1640.07H101.829V1567.32H29.1338V1640.07ZM103.659 1640.07H176.354V1567.32H103.659V1640.07ZM178.185 1640.07H250.88V1567.32H178.185V1640.07ZM252.71 1640.07H325.405V1567.32H252.71V1640.07ZM327.235 1640.07H399.931V1567.32H327.235V1640.07ZM401.761 1640.07H474.456V1567.32H401.761V1640.07ZM476.286 1640.07H548.981V1567.32H476.286V1640.07ZM550.812 1640.07H623.506V1567.32H550.812V1640.07ZM625.337 1640.07H698.031V1567.32H625.337V1640.07ZM699.862 1640.07H772.557V1567.32H699.862V1640.07ZM774.388 1640.07H847.082V1567.32H774.388V1640.07ZM849.144 1640.07H921.607V1567.32H849.144V1640.07ZM923.669 1640.07H996.133V1567.32H923.669V1640.07ZM998.194 1640.07H1070.66V1567.32H998.194V1640.07ZM1072.72 1640.07H1145.18V1567.32H1072.72V1640.07ZM1147.25 1640.07H1219.71V1567.32H1147.25V1640.07ZM1221.77 1640.07H1294.23V1567.32H1221.77V1640.07ZM1296.29 1640.07H1368.76V1567.32H1296.29V1640.07ZM1370.82 1640.07H1443.29V1567.32H1370.82V1640.07ZM1445.35 1640.07H1518.04V1567.32H1445.35V1640.07ZM1519.87 1640.07H1592.57V1567.32H1519.87V1640.07ZM1594.4 1640.07H1667.09V1567.32H1594.4V1640.07ZM1668.92 1640.07H1741.62V1567.32H1668.92V1640.07ZM1743.45 1640.07H1816.14V1567.32H1743.45V1640.07ZM1817.97 1640.07H1890.67V1567.32H1817.97V1640.07ZM1892.5 1640.07H1965.19V1567.32H1892.5V1640.07ZM1967.02 1640.07H2039.72V1567.32H1967.02V1640.07ZM2041.55 1640.07H2114.24V1567.32H2041.55V1640.07ZM2116.07 1640.07H2188.77V1567.32H2116.07V1640.07ZM2190.6 1640.07H2263.29V1567.32H2190.6V1640.07ZM29.1338 1565.48H101.829V1492.73H29.1338V1565.48ZM103.659 1565.48H176.354V1492.73H103.659V1565.48ZM178.185 1565.48H250.88V1492.73H178.185V1565.48ZM252.71 1565.48H325.405V1492.73H252.71V1565.48ZM327.235 1565.48H399.931V1492.73H327.235V1565.48ZM401.761 1565.48H474.456V1492.73H401.761V1565.48ZM476.286 1565.48H548.981V1492.73H476.286V1565.48ZM550.812 1565.48H623.506V1492.73H550.812V1565.48ZM625.337 1565.48H698.031V1492.73H625.337V1565.48ZM699.862 1565.48H772.557V1492.73H699.862V1565.48ZM774.388 1565.48H847.082V1492.73H774.388V1565.48ZM849.144 1565.48H921.607V1492.73H849.144V1565.48ZM923.669 1565.48H996.133V1492.73H923.669V1565.48ZM998.194 1565.48H1070.66V1492.73H998.194V1565.48ZM1072.72 1565.48H1145.18V1492.73H1072.72V1565.48ZM1147.25 1565.48H1219.71V1492.73H1147.25V1565.48ZM1221.77 1565.48H1294.23V1492.73H1221.77V1565.48ZM1296.29 1565.48H1368.76V1492.73H1296.29V1565.48ZM1370.82 1565.48H1443.29V1492.73H1370.82V1565.48ZM1445.35 1565.48H1518.04V1492.73H1445.35V1565.48ZM1519.87 1565.48H1592.57V1492.73H1519.87V1565.48ZM1594.4 1565.48H1667.09V1492.73H1594.4V1565.48ZM1668.92 1565.48H1741.62V1492.73H1668.92V1565.48ZM1743.45 1565.48H1816.14V1492.73H1743.45V1565.48ZM1817.97 1565.48H1890.67V1492.73H1817.97V1565.48ZM1892.5 1565.48H1965.19V1492.73H1892.5V1565.48ZM1967.02 1565.48H2039.72V1492.73H1967.02V1565.48ZM2041.55 1565.48H2114.24V1492.73H2041.55V1565.48ZM2116.07 1565.48H2188.77V1492.73H2116.07V1565.48ZM2190.6 1565.48H2263.29V1492.73H2190.6V1565.48ZM29.1338 1490.9H101.829V1418.14H29.1338V1490.9ZM103.659 1490.9H176.354V1418.14H103.659V1490.9ZM178.185 1490.9H250.88V1418.14H178.185V1490.9ZM252.71 1490.9H325.405V1418.14H252.71V1490.9ZM327.235 1490.9H399.931V1418.14H327.235V1490.9ZM401.761 1490.9H474.456V1418.14H401.761V1490.9ZM476.286 1490.9H548.981V1418.14H476.286V1490.9ZM550.812 1490.9H623.506V1418.14H550.812V1490.9ZM625.337 1490.9H698.031V1418.14H625.337V1490.9ZM699.862 1490.9H772.557V1418.14H699.862V1490.9ZM774.388 1490.9H847.082V1418.14H774.388V1490.9ZM849.144 1490.9H921.607V1418.14H849.144V1490.9ZM923.669 1490.9H996.133V1418.14H923.669V1490.9ZM998.194 1490.9H1070.66V1418.14H998.194V1490.9ZM1072.72 1490.9H1145.18V1418.14H1072.72V1490.9ZM1147.25 1490.9H1219.71V1418.14H1147.25V1490.9ZM1221.77 1490.9H1294.23V1418.14H1221.77V1490.9ZM1296.29 1490.9H1368.76V1418.14H1296.29V1490.9ZM1370.82 1490.9H1443.29V1418.14H1370.82V1490.9ZM1445.35 1490.9H1518.04V1418.14H1445.35V1490.9ZM1519.87 1490.9H1592.57V1418.14H1519.87V1490.9ZM1594.4 1490.9H1667.09V1418.14H1594.4V1490.9ZM1668.92 1490.9H1741.62V1418.14H1668.92V1490.9ZM1743.45 1490.9H1816.14V1418.14H1743.45V1490.9ZM1817.97 1490.9H1890.67V1418.14H1817.97V1490.9ZM1892.5 1490.9H1965.19V1418.14H1892.5V1490.9ZM1967.02 1490.9H2039.72V1418.14H1967.02V1490.9ZM2041.55 1490.9H2114.24V1418.14H2041.55V1490.9ZM2116.07 1490.9H2188.77V1418.14H2116.07V1490.9ZM2190.6 1490.9H2263.29V1418.14H2190.6V1490.9ZM29.1338 1416.31H101.829V1343.55H29.1338V1416.31ZM103.659 1416.31H176.354V1343.55H103.659V1416.31ZM178.185 1416.31H250.88V1343.55H178.185V1416.31ZM252.71 1416.31H325.405V1343.55H252.71V1416.31ZM327.235 1416.31H399.931V1343.55H327.235V1416.31ZM401.761 1416.31H474.456V1343.55H401.761V1416.31ZM476.286 1416.31H548.981V1343.55H476.286V1416.31ZM550.812 1416.31H623.506V1343.55H550.812V1416.31ZM625.337 1416.31H698.031V1343.55H625.337V1416.31ZM699.862 1416.31H772.557V1343.55H699.862V1416.31ZM774.388 1416.31H847.082V1343.55H774.388V1416.31ZM849.144 1416.31H921.607V1343.55H849.144V1416.31ZM923.669 1416.31H996.133V1343.55H923.669V1416.31ZM998.194 1416.31H1070.66V1343.55H998.194V1416.31ZM1072.72 1416.31H1145.18V1343.55H1072.72V1416.31ZM1147.25 1416.31H1219.71V1343.55H1147.25V1416.31ZM1221.77 1416.31H1294.23V1343.55H1221.77V1416.31ZM1296.29 1416.31H1368.76V1343.55H1296.29V1416.31ZM1370.82 1416.31H1443.29V1343.55H1370.82V1416.31ZM1445.35 1416.31H1518.04V1343.55H1445.35V1416.31ZM1519.87 1416.31H1592.57V1343.55H1519.87V1416.31ZM1594.4 1416.31H1667.09V1343.55H1594.4V1416.31ZM1668.92 1416.31H1741.62V1343.55H1668.92V1416.31ZM1743.45 1416.31H1816.14V1343.55H1743.45V1416.31ZM1817.97 1416.31H1890.67V1343.55H1817.97V1416.31ZM1892.5 1416.31H1965.19V1343.55H1892.5V1416.31ZM1967.02 1416.31H2039.72V1343.55H1967.02V1416.31ZM2041.55 1416.31H2114.24V1343.55H2041.55V1416.31ZM2116.07 1416.31H2188.77V1343.55H2116.07V1416.31ZM2190.6 1416.31H2263.29V1343.55H2190.6V1416.31ZM29.1338 1341.72H101.829V1268.96H29.1338V1341.72ZM103.659 1341.72H176.354V1268.96H103.659V1341.72ZM178.185 1341.72H250.88V1268.96H178.185V1341.72ZM252.71 1341.72H325.405V1268.96H252.71V1341.72ZM327.235 1341.72H399.931V1268.96H327.235V1341.72ZM401.761 1341.72H474.456V1268.96H401.761V1341.72ZM476.286 1341.72H548.981V1268.96H476.286V1341.72ZM550.812 1341.72H623.506V1268.96H550.812V1341.72ZM625.337 1341.72H698.031V1268.96H625.337V1341.72ZM699.862 1341.72H772.557V1268.96H699.862V1341.72ZM774.388 1341.72H847.082V1268.96H774.388V1341.72ZM849.144 1341.72H921.607V1268.96H849.144V1341.72ZM923.669 1341.72H996.133V1268.96H923.669V1341.72ZM998.194 1341.72H1070.66V1268.96H998.194V1341.72ZM1072.72 1341.72H1145.18V1268.96H1072.72V1341.72ZM1147.25 1341.72H1219.71V1268.96H1147.25V1341.72ZM1221.77 1341.72H1294.23V1268.96H1221.77V1341.72ZM1296.29 1341.72H1368.76V1268.96H1296.29V1341.72ZM1370.82 1341.72H1443.29V1268.96H1370.82V1341.72ZM1445.35 1341.72H1518.04V1268.96H1445.35V1341.72ZM1519.87 1341.72H1592.57V1268.96H1519.87V1341.72ZM1594.4 1341.72H1667.09V1268.96H1594.4V1341.72ZM1668.92 1341.72H1741.62V1268.96H1668.92V1341.72ZM1743.45 1341.72H1816.14V1268.96H1743.45V1341.72ZM1817.97 1341.72H1890.67V1268.96H1817.97V1341.72ZM1892.5 1341.72H1965.19V1268.96H1892.5V1341.72ZM1967.02 1341.72H2039.72V1268.96H1967.02V1341.72ZM2041.55 1341.72H2114.24V1268.96H2041.55V1341.72ZM2116.07 1341.72H2188.77V1268.96H2116.07V1341.72ZM2190.6 1341.72H2263.29V1268.96H2190.6V1341.72ZM29.1338 1267.13H101.829V1194.37H29.1338V1267.13ZM103.659 1267.13H176.354V1194.37H103.659V1267.13ZM178.185 1267.13H250.88V1194.37H178.185V1267.13ZM252.71 1267.13H325.405V1194.37H252.71V1267.13ZM327.235 1267.13H399.931V1194.37H327.235V1267.13ZM401.761 1267.13H474.456V1194.37H401.761V1267.13ZM476.286 1267.13H548.981V1194.37H476.286V1267.13ZM550.812 1267.13H623.506V1194.37H550.812V1267.13ZM625.337 1267.13H698.031V1194.37H625.337V1267.13ZM699.862 1267.13H772.557V1194.37H699.862V1267.13ZM774.388 1267.13H847.082V1194.37H774.388V1267.13ZM849.144 1267.13H921.607V1194.37H849.144V1267.13ZM923.669 1267.13H996.133V1194.37H923.669V1267.13ZM998.194 1267.13H1070.66V1194.37H998.194V1267.13ZM1072.72 1267.13H1145.18V1194.37H1072.72V1267.13ZM1147.25 1267.13H1219.71V1194.37H1147.25V1267.13ZM1221.77 1267.13H1294.23V1194.37H1221.77V1267.13ZM1296.29 1267.13H1368.76V1194.37H1296.29V1267.13ZM1370.82 1267.13H1443.29V1194.37H1370.82V1267.13ZM1445.35 1267.13H1518.04V1194.37H1445.35V1267.13ZM1519.87 1267.13H1592.57V1194.37H1519.87V1267.13ZM1594.4 1267.13H1667.09V1194.37H1594.4V1267.13ZM1668.92 1267.13H1741.62V1194.37H1668.92V1267.13ZM1743.45 1267.13H1816.14V1194.37H1743.45V1267.13ZM1817.97 1267.13H1890.67V1194.37H1817.97V1267.13ZM1892.5 1267.13H1965.19V1194.37H1892.5V1267.13ZM1967.02 1267.13H2039.72V1194.37H1967.02V1267.13ZM2041.55 1267.13H2114.24V1194.37H2041.55V1267.13ZM2116.07 1267.13H2188.77V1194.37H2116.07V1267.13ZM2190.6 1267.13H2263.29V1194.37H2190.6V1267.13ZM29.1338 1192.54H101.829V1119.78H29.1338V1192.54ZM103.659 1192.54H176.354V1119.78H103.659V1192.54ZM178.185 1192.54H250.88V1119.78H178.185V1192.54ZM252.71 1192.54H325.405V1119.78H252.71V1192.54ZM327.235 1192.54H399.931V1119.78H327.235V1192.54ZM401.761 1192.54H474.456V1119.78H401.761V1192.54ZM476.286 1192.54H548.981V1119.78H476.286V1192.54ZM550.812 1192.54H623.506V1119.78H550.812V1192.54ZM625.337 1192.54H698.031V1119.78H625.337V1192.54ZM699.862 1192.54H772.557V1119.78H699.862V1192.54ZM774.388 1192.54H847.082V1119.78H774.388V1192.54ZM849.144 1192.54H921.607V1119.78H849.144V1192.54ZM923.669 1192.54H996.133V1119.78H923.669V1192.54ZM998.194 1192.54H1070.66V1119.78H998.194V1192.54ZM1072.72 1192.54H1145.18V1119.78H1072.72V1192.54ZM1147.25 1192.54H1219.71V1119.78H1147.25V1192.54ZM1221.77 1192.54H1294.23V1119.78H1221.77V1192.54ZM1296.29 1192.54H1368.76V1119.78H1296.29V1192.54ZM1370.82 1192.54H1443.29V1119.78H1370.82V1192.54ZM1445.35 1192.54H1518.04V1119.78H1445.35V1192.54ZM1519.87 1192.54H1592.57V1119.78H1519.87V1192.54ZM1594.4 1192.54H1667.09V1119.78H1594.4V1192.54ZM1668.92 1192.54H1741.62V1119.78H1668.92V1192.54ZM1743.45 1192.54H1816.14V1119.78H1743.45V1192.54ZM1817.97 1192.54H1890.67V1119.78H1817.97V1192.54ZM1892.5 1192.54H1965.19V1119.78H1892.5V1192.54ZM1967.02 1192.54H2039.72V1119.78H1967.02V1192.54ZM2041.55 1192.54H2114.24V1119.78H2041.55V1192.54ZM2116.07 1192.54H2188.77V1119.78H2116.07V1192.54ZM2190.6 1192.54H2263.29V1119.78H2190.6V1192.54ZM29.1338 1117.95H101.829V1045.19H29.1338V1117.95ZM103.659 1117.95H176.354V1045.19H103.659V1117.95ZM178.185 1117.95H250.88V1045.19H178.185V1117.95ZM252.71 1117.95H325.405V1045.19H252.71V1117.95ZM327.235 1117.95H399.931V1045.19H327.235V1117.95ZM401.761 1117.95H474.456V1045.19H401.761V1117.95ZM476.286 1117.95H548.981V1045.19H476.286V1117.95ZM550.812 1117.95H623.506V1045.19H550.812V1117.95ZM625.337 1117.95H698.031V1045.19H625.337V1117.95ZM699.862 1117.95H772.557V1045.19H699.862V1117.95ZM774.388 1117.95H847.082V1045.19H774.388V1117.95ZM849.144 1117.95H921.607V1045.19H849.144V1117.95ZM923.669 1117.95H996.133V1045.19H923.669V1117.95ZM998.194 1117.95H1070.66V1045.19H998.194V1117.95ZM1072.72 1117.95H1145.18V1045.19H1072.72V1117.95ZM1147.25 1117.95H1219.71V1045.19H1147.25V1117.95ZM1221.77 1117.95H1294.23V1045.19H1221.77V1117.95ZM1296.29 1117.95H1368.76V1045.19H1296.29V1117.95ZM1370.82 1117.95H1443.29V1045.19H1370.82V1117.95ZM1445.35 1117.95H1518.04V1045.19H1445.35V1117.95ZM1519.87 1117.95H1592.57V1045.19H1519.87V1117.95ZM1594.4 1117.95H1667.09V1045.19H1594.4V1117.95ZM1668.92 1117.95H1741.62V1045.19H1668.92V1117.95ZM1743.45 1117.95H1816.14V1045.19H1743.45V1117.95ZM1817.97 1117.95H1890.67V1045.19H1817.97V1117.95ZM1892.5 1117.95H1965.19V1045.19H1892.5V1117.95ZM1967.02 1117.95H2039.72V1045.19H1967.02V1117.95ZM2041.55 1117.95H2114.24V1045.19H2041.55V1117.95ZM2116.07 1117.95H2188.77V1045.19H2116.07V1117.95ZM2190.6 1117.95H2263.29V1045.19H2190.6V1117.95ZM29.1338 1043.36H101.829V967.263H29.1338V1043.36ZM103.659 1043.36H176.354V967.263H103.659V1043.36ZM178.185 1043.36H250.88V967.263H178.185V1043.36ZM252.71 1043.36H325.405V967.263H252.71V1043.36ZM327.235 1043.36H399.931V967.263H327.235V1043.36ZM401.761 1043.36H474.456V967.263H401.761V1043.36ZM476.286 1043.36H548.981V967.263H476.286V1043.36ZM550.812 1043.36H623.506V967.263H550.812V1043.36ZM625.337 1043.36H698.031V967.263H625.337V1043.36ZM699.862 1043.36H772.557V967.263H699.862V1043.36ZM774.388 1043.36H847.082V967.263H774.388V1043.36ZM849.144 1043.36H921.607V967.263H849.144V1043.36ZM923.669 1043.36H996.133V967.263H923.669V1043.36ZM998.194 1043.36H1070.66V967.263H998.194V1043.36ZM1072.72 1043.36H1145.18V967.263H1072.72V1043.36ZM1147.24 979H1147.25V1043.36H1219.71V967.263H1147.24V979ZM1221.77 1043.36H1294.23V967.263H1221.77V1043.36ZM1296.29 1043.36H1368.76V967.263H1296.29V1043.36ZM1370.82 1043.36H1443.29V967.263H1370.82V1043.36ZM1445.35 1043.36H1518.04V967.263H1445.35V1043.36ZM1519.87 1043.36H1592.57V967.263H1519.87V1043.36ZM1594.4 1043.36H1667.09V967.263H1594.4V1043.36ZM1668.92 1043.36H1741.62V967.263H1668.92V1043.36ZM1743.45 1043.36H1816.14V967.263H1743.45V1043.36ZM1817.97 1043.36H1890.67V967.263H1817.97V1043.36ZM1892.5 1043.36H1965.19V967.263H1892.5V1043.36ZM1967.02 1043.36H2039.72V995H2039.72V967.263H1967.02V1043.36ZM2041.55 1043.36H2114.24V995H2114.24V967.263H2041.55V1043.36ZM2116.07 1043.36H2188.77V967.263H2116.07V1043.36ZM2190.6 1043.36H2263.29V967.263H2190.6V1043.36ZM29.1338 965.432H101.829V892.674H29.1338V965.432ZM103.659 965.432H176.354V892.674H103.659V965.432ZM178.185 965.432H250.88V892.674H178.185V965.432ZM252.71 965.432H325.405V892.674H252.71V965.432ZM327.235 965.432H399.931V892.674H327.235V965.432ZM401.761 965.432H474.456V892.674H401.761V965.432ZM476.286 965.432H548.981V892.674H476.286V965.432ZM550.812 965.432H623.506V892.674H550.812V965.432ZM625.337 965.432H698.031V892.674H625.337V965.432ZM699.862 965.432H772.557V892.674H699.862V965.432ZM774.388 965.432H847.082V892.674H774.388V965.432ZM849.144 965.432H921.607V892.674H849.144V965.432ZM923.669 965.432H996.133V892.674H923.669V965.432ZM998.194 965.432H1070.66V892.674H998.194V965.432ZM1072.72 965.432H1145.18V892.674H1072.72V965.432ZM1147.24 965.432H1219.71V892.674H1147.24V965.432ZM1221.77 965.432H1294.23V892.674H1221.77V965.432ZM1296.29 965.432H1368.76V892.674H1296.29V965.432ZM1370.82 965.432H1443.29V892.674H1370.82V965.432ZM1445.35 965.432H1518.04V892.674H1445.35V965.432ZM1519.87 965.432H1592.57V892.674H1519.87V965.432ZM1594.4 965.432H1667.09V892.674H1594.4V965.432ZM1668.92 965.432H1741.62V892.674H1668.92V965.432ZM1743.45 965.432H1816.14V892.674H1743.45V965.432ZM1817.97 965.432H1890.67V892.674H1817.97V965.432ZM1892.5 965.432H1965.19V892.674H1892.5V965.432ZM1967.02 965.432H2039.72V892.674H1967.02V965.432ZM2041.55 965.432H2114.24V892.674H2041.55V965.432ZM2116.07 965.432H2188.77V892.674H2116.07V965.432ZM2190.6 965.432H2263.29V892.674H2190.6V965.432ZM29.1338 890.843H101.829V818.085H29.1338V890.843ZM103.659 890.843H176.354V818.085H103.659V890.843ZM178.185 890.843H250.88V818.085H178.185V890.843ZM252.71 890.843H325.405V818.085H252.71V890.843ZM327.235 890.843H399.931V818.085H327.235V890.843ZM401.761 890.843H474.456V818.085H401.761V890.843ZM476.286 890.843H548.981V818.085H476.286V890.843ZM550.812 890.843H623.506V818.085H550.812V890.843ZM625.337 890.843H698.031V818.085H625.337V890.843ZM699.862 890.843H772.557V818.085H699.862V890.843ZM774.388 890.843H847.082V818.085H774.388V890.843ZM849.144 890.843H921.607V818.085H849.144V890.843ZM923.669 890.843H996.133V818.085H923.669V890.843ZM998.194 890.843H1070.66V818.085H998.194V890.843ZM1072.72 890.843H1145.18V818.085H1072.72V890.843ZM1147.24 890.843H1219.71V818.085H1147.24V890.843ZM1221.77 890.843H1294.23V818.085H1221.77V890.843ZM1296.29 890.843H1368.76V818.085H1296.29V890.843ZM1370.82 890.843H1443.29V818.085H1370.82V890.843ZM1445.35 890.843H1518.04V818.085H1445.35V890.843ZM1519.87 890.843H1592.57V818.085H1519.87V890.843ZM1594.4 890.843H1667.09V818.085H1594.4V890.843ZM1668.92 890.843H1741.62V818.085H1668.92V890.843ZM1743.45 890.843H1816.14V818.085H1743.45V890.843ZM1817.97 890.843H1890.67V818.085H1817.97V890.843ZM1892.5 890.843H1965.19V818.085H1892.5V890.843ZM1967.02 890.843H2039.72V818.085H1967.02V890.843ZM2041.55 890.843H2114.24V818.085H2041.55V890.843ZM2116.07 890.843H2188.77V818.085H2116.07V890.843ZM2190.6 890.843H2263.29V818.085H2190.6V890.843ZM29.1338 816.254H101.829V743.495H29.1338V816.254ZM103.659 816.254H176.354V743.495H103.659V816.254ZM178.185 816.254H250.88V743.495H178.185V816.254ZM252.71 816.254H325.405V743.495H252.71V816.254ZM327.235 816.254H399.931V743.495H327.235V816.254ZM401.761 816.254H474.456V743.495H401.761V816.254ZM476.286 816.254H548.981V743.495H476.286V816.254ZM550.812 816.254H623.506V743.495H550.812V816.254ZM625.337 816.254H698.031V743.495H625.337V816.254ZM699.862 816.254H772.557V743.495H699.862V816.254ZM774.388 816.254H847.082V743.495H774.388V816.254ZM849.144 816.254H921.607V743.495H849.144V816.254ZM923.669 816.254H996.133V743.495H923.669V816.254ZM998.194 816.254H1070.66V743.495H998.194V816.254ZM1072.72 816.254H1145.18V743.495H1072.72V816.254ZM1147.24 816.254H1219.71V743.495H1147.24V816.254ZM1221.77 816.254H1294.23V743.495H1221.77V816.254ZM1296.29 816.254H1368.76V743.495H1296.29V816.254ZM1370.82 816.254H1443.29V743.495H1370.82V816.254ZM1445.35 816.254H1518.04V743.495H1445.35V816.254ZM1519.87 816.254H1592.57V743.495H1519.87V816.254ZM1594.4 816.254H1667.09V743.495H1594.4V816.254ZM1668.92 816.254H1741.62V743.495H1668.92V816.254ZM1743.45 816.254H1816.14V743.495H1743.45V816.254ZM1817.97 816.254H1890.67V743.495H1817.97V816.254ZM1892.5 816.254H1965.19V743.495H1892.5V816.254ZM1967.02 816.254H2039.72V743.495H1967.02V816.254ZM2041.55 816.254H2114.24V743.495H2041.55V816.254ZM2116.07 816.254H2188.77V743.495H2116.07V816.254ZM2190.6 816.254H2263.29V743.495H2190.6V816.254ZM29.1338 741.663H101.829V668.906H29.1338V741.663ZM103.659 741.663H176.354V668.906H103.659V741.663ZM178.185 741.663H250.88V668.906H178.185V741.663ZM252.71 741.663H325.405V668.906H252.71V741.663ZM327.235 741.663H399.931V668.906H327.235V741.663ZM401.761 741.663H474.456V668.906H401.761V741.663ZM476.286 741.663H548.981V668.906H476.286V741.663ZM550.812 741.663H623.506V668.906H550.812V741.663ZM625.337 741.663H698.031V668.906H625.337V741.663ZM699.862 741.663H772.557V668.906H699.862V741.663ZM774.388 741.663H847.082V668.906H774.388V741.663ZM849.144 741.663H921.607V668.906H849.144V741.663ZM923.669 741.663H996.133V668.906H923.669V741.663ZM998.194 741.663H1070.66V668.906H998.194V741.663ZM1072.72 741.663H1145.18V668.906H1072.72V741.663ZM1147.24 741.663H1219.71V668.906H1147.24V741.663ZM1221.77 741.663H1294.23V668.906H1221.77V741.663ZM1296.29 741.663H1368.76V668.906H1296.29V741.663ZM1370.82 741.663H1443.29V668.906H1370.82V741.663ZM1445.35 741.663H1518.04V668.906H1445.35V741.663ZM1519.87 741.663H1592.57V668.906H1519.87V741.663ZM1594.4 741.663H1667.09V668.906H1594.4V741.663ZM1668.92 741.663H1741.62V668.906H1668.92V741.663ZM1743.45 741.663H1816.14V668.906H1743.45V741.663ZM1817.97 741.663H1890.67V668.906H1817.97V741.663ZM1892.5 741.663H1965.19V668.906H1892.5V741.663ZM1967.02 741.663H2039.72V668.906H1967.02V741.663ZM2041.55 741.663H2114.24V668.906H2041.55V741.663ZM2116.07 741.663H2188.77V668.906H2116.07V741.663ZM2190.6 741.663H2263.29V668.906H2190.6V741.663ZM29.1338 667.074H101.829V594.316H29.1338V667.074ZM103.659 667.074H176.354V594.316H103.659V667.074ZM178.185 667.074H250.88V594.316H178.185V667.074ZM252.71 667.074H325.405V594.316H252.71V667.074ZM327.235 667.074H399.931V594.316H327.235V667.074ZM401.761 667.074H474.456V594.316H401.761V667.074ZM476.286 667.074H548.981V594.316H476.286V667.074ZM550.812 667.074H623.506V594.316H550.812V667.074ZM625.337 667.074H698.031V594.316H625.337V667.074ZM699.862 667.074H772.557V594.316H699.862V667.074ZM774.388 667.074H847.082V594.316H774.388V667.074ZM849.144 667.074H921.607V594.316H849.144V667.074ZM923.669 667.074H996.133V594.316H923.669V667.074ZM998.194 667.074H1070.66V594.316H998.194V667.074ZM1072.72 667.074H1145.18V594.316H1072.72V667.074ZM1147.24 667.074H1219.71V594.316H1147.24V667.074ZM1221.77 667.074H1294.23V594.316H1221.77V667.074ZM1296.29 667.074H1368.76V594.316H1296.29V667.074ZM1370.82 667.074H1443.29V594.316H1370.82V667.074ZM1445.35 667.074H1518.04V594.316H1445.35V667.074ZM1519.87 667.074H1592.57V594.316H1519.87V667.074ZM1594.4 667.074H1667.09V594.316H1594.4V667.074ZM1668.92 667.074H1741.62V594.316H1668.92V667.074ZM1743.45 667.074H1816.14V594.316H1743.45V667.074ZM1817.97 667.074H1890.67V594.316H1817.97V667.074ZM1892.5 667.074H1965.19V594.316H1892.5V667.074ZM1967.02 667.074H2039.72V594.316H1967.02V667.074ZM2041.55 667.074H2114.24V594.316H2041.55V667.074ZM2116.07 667.074H2188.77V594.316H2116.07V667.074ZM2190.6 667.074H2263.29V594.316H2190.6V667.074ZM29.1338 592.484H101.829V519.727H29.1338V592.484ZM103.659 592.484H176.354V519.727H103.659V592.484ZM178.185 592.484H250.88V519.727H178.185V592.484ZM252.71 592.484H325.405V519.727H252.71V592.484ZM327.235 592.484H399.931V519.727H327.235V592.484ZM401.761 592.484H474.456V519.727H401.761V592.484ZM476.286 592.484H548.981V519.727H476.286V592.484ZM550.812 592.484H623.506V519.727H550.812V592.484ZM625.337 592.484H698.031V519.727H625.337V592.484ZM699.862 592.484H772.557V519.727H699.862V592.484ZM774.388 592.484H847.082V519.727H774.388V592.484ZM849.144 592.484H921.607V519.727H849.144V592.484ZM923.669 592.484H996.133V519.727H923.669V592.484ZM998.194 592.484H1070.66V519.727H998.194V592.484ZM1072.72 592.484H1145.18V519.727H1072.72V592.484ZM1147.24 592.484H1219.71V519.727H1147.24V592.484ZM1221.77 592.484H1294.23V519.727H1221.77V592.484ZM1296.29 592.484H1368.76V519.727H1296.29V592.484ZM1370.82 592.484H1443.29V519.727H1370.82V592.484ZM1445.35 592.484H1518.04V519.727H1445.35V592.484ZM1519.87 592.484H1592.57V519.727H1519.87V592.484ZM1594.4 592.484H1667.09V519.727H1594.4V592.484ZM1668.92 592.484H1741.62V519.727H1668.92V592.484ZM1743.45 592.484H1816.14V519.727H1743.45V592.484ZM1817.97 592.484H1890.67V519.727H1817.97V592.484ZM1892.5 592.484H1965.19V519.727H1892.5V592.484ZM1967.02 592.484H2039.72V519.727H1967.02V592.484ZM2041.55 592.484H2114.24V519.727H2041.55V592.484ZM2116.07 592.484H2188.77V519.727H2116.07V592.484ZM2190.6 592.484H2263.29V519.727H2190.6V592.484ZM29.1338 517.896H101.829V445.138H29.1338V517.896ZM103.659 517.896H176.354V445.138H103.659V517.896ZM178.185 517.896H250.88V445.138H178.185V517.896ZM252.71 517.896H325.405V445.138H252.71V517.896ZM327.235 517.896H399.931V445.138H327.235V517.896ZM401.761 517.896H474.456V445.138H401.761V517.896ZM476.286 517.896H548.981V445.138H476.286V517.896ZM550.812 517.896H623.506V445.138H550.812V517.896ZM625.337 517.896H698.031V445.138H625.337V517.896ZM699.862 517.896H772.557V445.138H699.862V517.896ZM774.388 517.896H847.082V445.138H774.388V517.896ZM849.144 517.896H921.607V445.138H849.144V517.896ZM923.669 517.896H996.133V445.138H923.669V517.896ZM998.194 517.896H1070.66V445.138H998.194V517.896ZM1072.72 517.896H1145.18V445.138H1072.72V517.896ZM1147.24 517.896H1219.71V445.138H1147.24V517.896ZM1221.77 517.896H1294.23V445.138H1221.77V517.896ZM1296.29 517.896H1368.76V445.138H1296.29V517.896ZM1370.82 517.896H1443.29V445.138H1370.82V517.896ZM1445.35 517.896H1518.04V445.138H1445.35V517.896ZM1519.87 517.896H1592.57V445.138H1519.87V517.896ZM1594.4 517.896H1667.09V445.138H1594.4V517.896ZM1668.92 517.896H1741.62V445.138H1668.92V517.896ZM1743.45 517.896H1816.14V445.138H1743.45V517.896ZM1817.97 517.896H1890.67V445.138H1817.97V517.896ZM1892.5 517.896H1965.19V445.138H1892.5V517.896ZM1967.02 517.896H2039.72V445.138H1967.02V517.896ZM2041.55 517.896H2114.24V445.138H2041.55V517.896ZM2116.07 517.896H2188.77V445.138H2116.07V517.896ZM2190.6 517.896H2263.29V445.138H2190.6V517.896ZM29.1338 443.307H101.829V370.548H29.1338V443.307ZM103.659 443.307H176.354V370.548H103.659V443.307ZM178.185 443.307H250.88V370.548H178.185V443.307ZM252.71 443.307H325.405V370.548H252.71V443.307ZM327.235 443.307H399.931V370.548H327.235V443.307ZM401.761 443.307H474.456V370.548H401.761V443.307ZM476.286 443.307H548.981V370.548H476.286V443.307ZM550.812 443.307H623.506V370.548H550.812V443.307ZM625.337 443.307H698.031V370.548H625.337V443.307ZM699.862 443.307H772.557V370.548H699.862V443.307ZM774.388 443.307H847.082V370.548H774.388V443.307ZM849.144 443.307H921.607V370.548H849.144V443.307ZM923.669 443.307H996.133V370.548H923.669V443.307ZM998.194 443.307H1070.66V370.548H998.194V443.307ZM1072.72 443.307H1145.18V370.548H1072.72V443.307ZM1147.24 443.307H1219.71V370.548H1147.24V443.307ZM1221.77 443.307H1294.23V370.548H1221.77V443.307ZM1296.29 443.307H1368.76V370.548H1296.29V443.307ZM1370.82 443.307H1443.29V370.548H1370.82V443.307ZM1445.35 443.307H1518.04V370.548H1445.35V443.307ZM1519.87 443.307H1592.57V370.548H1519.87V443.307ZM1594.4 443.307H1667.09V370.548H1594.4V443.307ZM1668.92 443.307H1741.62V370.548H1668.92V443.307ZM1743.45 443.307H1816.14V370.548H1743.45V443.307ZM1817.97 443.307H1890.67V370.548H1817.97V443.307ZM1892.5 443.307H1965.19V370.548H1892.5V443.307ZM1967.02 443.307H2039.72V370.548H1967.02V443.307ZM2041.55 443.307H2114.24V370.548H2041.55V443.307ZM2116.07 443.307H2188.77V370.548H2116.07V443.307ZM2190.6 443.307H2263.29V370.548H2190.6V443.307ZM29.1338 368.717H101.829V295.959H29.1338V368.717ZM103.659 368.717H176.354V295.959H103.659V368.717ZM178.185 368.717H250.88V295.959H178.185V368.717ZM252.71 368.717H325.405V295.959H252.71V368.717ZM327.235 368.717H399.931V295.959H327.235V368.717ZM401.761 368.717H474.456V295.959H401.761V368.717ZM476.286 368.717H548.981V295.959H476.286V368.717ZM550.812 368.717H623.506V295.959H550.812V368.717ZM625.337 368.717H698.031V295.959H625.337V368.717ZM699.862 368.717H772.557V295.959H699.862V368.717ZM774.388 368.717H847.082V295.959H774.388V368.717ZM849.144 368.717H921.607V295.959H849.144V368.717ZM923.669 368.717H996.133V295.959H923.669V368.717ZM998.194 368.717H1070.66V295.959H998.194V368.717ZM1072.72 368.717H1145.18V295.959H1072.72V368.717ZM1147.24 368.717H1219.71V295.959H1147.24V368.717ZM1221.77 368.717H1294.23V295.959H1221.77V368.717ZM1296.29 368.717H1368.76V295.959H1296.29V368.717ZM1370.82 368.717H1443.29V295.959H1370.82V368.717ZM1445.35 368.717H1518.04V295.959H1445.35V368.717ZM1519.87 368.717H1592.57V295.959H1519.87V368.717ZM1594.4 368.717H1667.09V295.959H1594.4V368.717ZM1668.92 368.717H1741.62V295.959H1668.92V368.717ZM1743.45 368.717H1816.14V295.959H1743.45V368.717ZM1817.97 368.717H1890.67V295.959H1817.97V368.717ZM1892.5 368.717H1965.19V295.959H1892.5V368.717ZM1967.02 368.717H2039.72V295.959H1967.02V368.717ZM2041.55 368.717H2114.24V295.959H2041.55V368.717ZM2116.07 368.717H2188.77V295.959H2116.07V368.717ZM2190.6 368.717H2263.29V295.959H2190.6V368.717ZM29.1338 294.128H101.829V221.37H29.1338V294.128ZM103.659 294.128H176.354V221.37H103.659V294.128ZM178.185 294.128H250.88V221.37H178.185V294.128ZM252.71 294.128H325.405V221.37H252.71V294.128ZM327.235 294.128H399.931V221.37H327.235V294.128ZM401.761 294.128H474.456V221.37H401.761V294.128ZM476.286 294.128H548.981V221.37H476.286V294.128ZM550.812 294.128H623.506V221.37H550.812V294.128ZM625.337 294.128H698.031V221.37H625.337V294.128ZM699.862 294.128H772.557V221.37H699.862V294.128ZM774.388 294.128H847.082V221.37H774.388V294.128ZM849.144 294.128H921.607V221.37H849.144V294.128ZM923.669 294.128H996.133V221.37H923.669V294.128ZM998.194 294.128H1070.66V221.37H998.194V294.128ZM1072.72 294.128H1145.18V221.37H1072.72V294.128ZM1147.24 294.128H1219.71V221.37H1147.24V294.128ZM1221.77 294.128H1294.23V221.37H1221.77V294.128ZM1296.29 294.128H1368.76V221.37H1296.29V294.128ZM1370.82 294.128H1443.29V221.37H1370.82V294.128ZM1445.35 294.128H1518.04V221.37H1445.35V294.128ZM1519.87 294.128H1592.57V221.37H1519.87V294.128ZM1594.4 294.128H1667.09V221.37H1594.4V294.128ZM1668.92 294.128H1741.62V221.37H1668.92V294.128ZM1743.45 294.128H1816.14V221.37H1743.45V294.128ZM1817.97 294.128H1890.67V221.37H1817.97V294.128ZM1892.5 294.128H1965.19V221.37H1892.5V294.128ZM1967.02 294.128H2039.72V221.37H1967.02V294.128ZM2041.55 294.128H2114.24V221.37H2041.55V294.128ZM2116.07 294.128H2188.77V221.37H2116.07V294.128ZM2190.6 294.128H2263.29V221.37H2190.6V294.128ZM29.1338 219.538H101.829V146.78H29.1338V219.538ZM103.659 219.538H176.354V146.78H103.659V219.538ZM178.185 219.538H250.88V146.78H178.185V219.538ZM252.71 219.538H325.405V146.78H252.71V219.538ZM327.235 219.538H399.931V146.78H327.235V219.538ZM401.761 219.538H474.456V146.78H401.761V219.538ZM476.286 219.538H548.981V146.78H476.286V219.538ZM550.812 219.538H623.506V146.78H550.812V219.538ZM625.337 219.538H698.031V146.78H625.337V219.538ZM699.862 219.538H772.557V146.78H699.862V219.538ZM774.388 219.538H847.082V146.78H774.388V219.538ZM849.144 219.538H921.607V146.78H849.144V219.538ZM923.669 219.538H996.133V146.78H923.669V219.538ZM998.194 219.538H1070.66V146.78H998.194V219.538ZM1072.72 219.538H1145.18V146.78H1072.72V219.538ZM1147.24 219.538H1219.71V146.78H1147.24V219.538ZM1221.77 219.538H1294.23V146.78H1221.77V219.538ZM1296.29 219.538H1368.76V146.78H1296.29V219.538ZM1370.82 219.538H1443.29V146.78H1370.82V219.538ZM1445.35 219.538H1518.04V146.78H1445.35V219.538ZM1519.87 219.538H1592.57V146.78H1519.87V219.538ZM1594.4 219.538H1667.09V146.78H1594.4V219.538ZM1668.92 219.538H1741.62V146.78H1668.92V219.538ZM1743.45 219.538H1816.14V146.78H1743.45V219.538ZM1817.97 219.538H1890.67V146.78H1817.97V219.538ZM1892.5 219.538H1965.19V146.78H1892.5V219.538ZM1967.02 219.538H2039.72V146.78H1967.02V219.538ZM2041.55 219.538H2114.24V146.78H2041.55V219.538ZM2116.07 219.538H2188.77V146.78H2116.07V219.538ZM2190.6 219.538H2263.29V146.78H2190.6V219.538ZM29.1338 144.948H101.829V72.1904H29.1338V144.948ZM103.659 144.948H176.354V72.1904H103.659V144.948ZM178.185 144.948H250.88V72.1904H178.185V144.948ZM252.71 144.948H325.405V72.1904H252.71V144.948ZM327.235 144.948H399.931V72.1904H327.235V144.948ZM401.761 144.948H474.456V72.1904H401.761V144.948ZM476.286 144.948H548.981V72.1904H476.286V144.948ZM550.812 144.948H623.506V72.1904H550.812V144.948ZM625.337 144.948H698.031V72.1904H625.337V144.948ZM699.862 144.948H772.557V72.1904H699.862V144.948ZM774.388 144.948H847.082V72.1904H774.388V144.948ZM849.144 144.948H921.607V72.1904H849.144V144.948ZM923.669 144.948H996.133V72.1904H923.669V144.948ZM998.194 144.948H1070.66V72.1904H998.194V144.948ZM1072.72 144.948H1145.18V72.1904H1072.72V144.948ZM1147.24 144.948H1219.71V72.1904H1147.24V144.948ZM1221.77 144.948H1294.23V72.1904H1221.77V144.948ZM1296.29 144.948H1368.76V72.1904H1296.29V144.948ZM1370.82 144.948H1443.29V72.1904H1370.82V144.948ZM1445.35 144.948H1518.04V72.1904H1445.35V144.948ZM1519.87 144.948H1592.57V72.1904H1519.87V144.948ZM1594.4 144.948H1667.09V72.1904H1594.4V144.948ZM1668.92 144.948H1741.62V72.1904H1668.92V144.948ZM1743.45 144.948H1816.14V72.1904H1743.45V144.948ZM1817.97 144.948H1890.67V72.1904H1817.97V144.948ZM1892.5 144.948H1965.19V72.1904H1892.5V144.948ZM1967.02 144.948H2039.72V72.1904H1967.02V144.948ZM2041.55 144.948H2114.24V72.1904H2041.55V144.948ZM2116.07 144.948H2188.77V72.1904H2116.07V144.948ZM2190.6 144.948H2263.29V72.1904H2190.6V144.948Z" fill="url(#paint1_radial_565_513)" fill-opacity="0.2" style="mix-blend-mode:multiply"/>
<g filter="url(#filter0_f_565_513)">
<path fill-rule="evenodd" clip-rule="evenodd" d="M1921.33 1799C1697.26 1968.97 1585.11 2297.05 1658.92 2652.56C1700.74 2853.98 1795.68 3032.56 1921.33 3169V1799Z" fill="url(#paint2_linear_565_513)" fill-opacity="0.8"/>
</g>
<g filter="url(#filter1_f_565_513)">
<path d="M4 1435C228.075 1604.97 340.222 1933.05 266.412 2288.56C224.595 2489.98 129.655 2668.56 4 2805V1435Z" fill="url(#paint3_linear_565_513)" fill-opacity="0.8"/>
</g>
<g filter="url(#filter2_f_565_513)">
<path fill-rule="evenodd" clip-rule="evenodd" d="M1918 940.001C1650.61 780.546 1445.92 523.263 1376.64 218.139C1359.86 144.22 1351.87 71.2063 1352 0H1918V940.001Z" fill="url(#paint4_linear_565_513)" fill-opacity="0.8"/>
</g>
<g filter="url(#filter3_f_565_513)">
<path fill-rule="evenodd" clip-rule="evenodd" d="M636.931 0C695.68 136.895 713.762 292.912 680.354 453.671C610.369 790.429 334.245 1052.69 0 1139V0H636.931Z" fill="url(#paint5_linear_565_513)" fill-opacity="0.8"/>
</g>
</g>
<defs>
<filter id="filter0_f_565_513" x="1136.33" y="1299" width="1285" height="2370" filterUnits="userSpaceOnUse" color-interpolation-filters="sRGB">
<feFlood flood-opacity="0" result="BackgroundImageFix"/>
<feBlend mode="normal" in="SourceGraphic" in2="BackgroundImageFix" result="shape"/>
<feGaussianBlur stdDeviation="250" result="effect1_foregroundBlur_565_513"/>
</filter>
<filter id="filter1_f_565_513" x="-496" y="935" width="1285" height="2370" filterUnits="userSpaceOnUse" color-interpolation-filters="sRGB">
<feFlood flood-opacity="0" result="BackgroundImageFix"/>
<feBlend mode="normal" in="SourceGraphic" in2="BackgroundImageFix" result="shape"/>
<feGaussianBlur stdDeviation="250" result="effect1_foregroundBlur_565_513"/>
</filter>
<filter id="filter2_f_565_513" x="852" y="-500" width="1566" height="1940" filterUnits="userSpaceOnUse" color-interpolation-filters="sRGB">
<feFlood flood-opacity="0" result="BackgroundImageFix"/>
<feBlend mode="normal" in="SourceGraphic" in2="BackgroundImageFix" result="shape"/>
<feGaussianBlur stdDeviation="250" result="effect1_foregroundBlur_565_513"/>
</filter>
<filter id="filter3_f_565_513" x="-500" y="-500" width="1697" height="2139" filterUnits="userSpaceOnUse" color-interpolation-filters="sRGB">
<feFlood flood-opacity="0" result="BackgroundImageFix"/>
<feBlend mode="normal" in="SourceGraphic" in2="BackgroundImageFix" result="shape"/>
<feGaussianBlur stdDeviation="250" result="effect1_foregroundBlur_565_513"/>
</filter>
<linearGradient id="paint0_linear_565_513" x1="1059" y1="2045.18" x2="-350.323" y2="1711.91" gradientUnits="userSpaceOnUse">
<stop stop-color="#F1EFE9"/>
<stop offset="1" stop-color="#F1EFE9"/>
</linearGradient>
<radialGradient id="paint1_radial_565_513" cx="0" cy="0" r="1" gradientTransform="matrix(-3.22397 -556.008 483792 35604.5 857.985 2814.75)" gradientUnits="userSpaceOnUse">
<stop stop-color="#858064" stop-opacity="0.9"/>
<stop offset="1" stop-color="#C4C4AE" stop-opacity="0.9"/>
</radialGradient>
<linearGradient id="paint2_linear_565_513" x1="3196.51" y1="3412.02" x2="2326.1" y2="1281.69" gradientUnits="userSpaceOnUse">
<stop offset="0.108304" stop-color="#D0CDC5"/>
<stop offset="0.408654" stop-color="#9DB8B2" stop-opacity="0.78"/>
</linearGradient>
<linearGradient id="paint3_linear_565_513" x1="-1271.18" y1="3048.02" x2="-400.761" y2="917.693" gradientUnits="userSpaceOnUse">
<stop offset="0.108304" stop-color="#D0CDC5"/>
<stop offset="0.408654" stop-color="#9DB8B2" stop-opacity="0.78"/>
</linearGradient>
<linearGradient id="paint4_linear_565_513" x1="3350.67" y1="-865.121" x2="958.098" y2="257.189" gradientUnits="userSpaceOnUse">
<stop offset="0.108304" stop-color="#D0CDC5"/>
<stop offset="0.408654" stop-color="#9DB8B2" stop-opacity="0.78"/>
</linearGradient>
<linearGradient id="paint5_linear_565_513" x1="-7.42371" y1="1072.86" x2="704.077" y2="17.9617" gradientUnits="userSpaceOnUse">
<stop offset="0.108304" stop-color="#D0CDC5"/>
<stop offset="0.408654" stop-color="#9DB8B2" stop-opacity="0.78"/>
</linearGradient>
<clipPath id="clip0_565_513">
<rect width="1920" height="3169" fill="white"/>
</clipPath>
</defs>
</svg>
