<svg width="206" height="44" viewBox="0 0 206 44" fill="none" xmlns="http://www.w3.org/2000/svg">
<path d="M0 10C0 4.47715 4.47715 0 10 0H195.53C201.053 0 205.53 4.47715 205.53 10V44H0V10Z" fill="#3A3A3A"/>
<path d="M35.5312 12.06C37.9499 13.0904 38.8482 14.3634 38.8506 17.3488C38.8506 19.8131 38.1084 21.6529 35.8747 22.9355L42.6959 31.9975V15.9005H49.4378L51.2872 12.0961L51.3209 12.0264L51.3641 12.048V12L35.5312 12.06Z" fill="white"/>
<path d="M33.6584 22.6165C33.6584 22.6165 37.0186 22.0113 37.0186 17.2028C37.0186 17.2028 37.2155 12.4136 31.7177 12.0605H22L24.7693 15.8987H28.9701C28.9701 15.8987 30.7282 15.853 31.3022 15.8987C33.8554 16.098 33.9875 19.8064 31.4535 20.1763C29.8419 20.4093 26.3281 20.3156 26.9477 20.3156L34.9722 31.998H40.6045L33.6608 22.6165H33.6584Z" fill="#FAD010"/>
<path d="M120.972 11.9004C121.041 11.9028 121.111 11.9052 121.182 11.9077C121.252 11.9083 121.321 11.9088 121.393 11.9094C121.657 11.9652 121.779 12.0677 121.978 12.2416C122.089 12.4185 122.089 12.4185 122.182 12.6213C122.218 12.6993 122.254 12.7772 122.292 12.8576C122.349 12.986 122.349 12.986 122.408 13.1171C122.45 13.208 122.492 13.2988 122.534 13.3897C122.652 13.6464 122.768 13.9038 122.884 14.1613C122.967 14.3459 123.05 14.5303 123.134 14.7147C123.457 15.429 123.778 16.1437 124.098 16.8594C124.22 17.1326 124.343 17.4056 124.467 17.6778C124.489 17.725 124.51 17.7721 124.532 17.8207C124.589 17.9453 124.646 18.0699 124.703 18.1944C124.78 18.3787 124.78 18.3787 124.78 18.5231C124.83 18.5231 124.88 18.5231 124.931 18.5231C124.951 18.4638 124.951 18.4638 124.971 18.4034C125.107 18.0038 125.264 17.6182 125.439 17.2328C125.466 17.173 125.493 17.1132 125.521 17.0516C125.608 16.8575 125.696 16.6637 125.784 16.4699C125.844 16.3351 125.905 16.2003 125.966 16.0655C126.121 15.7234 126.276 15.3814 126.432 15.0395C126.519 14.8481 126.606 14.6565 126.692 14.465C126.822 14.1783 126.953 13.8919 127.084 13.6057C127.132 13.5003 127.18 13.3949 127.228 13.2893C127.294 13.1432 127.361 12.9974 127.428 12.8517C127.484 12.7292 127.484 12.7292 127.541 12.6043C127.683 12.3398 127.827 12.0889 128.113 11.9528C128.28 11.9306 128.28 11.9306 128.477 11.9213C128.542 11.9169 128.606 11.9125 128.673 11.908C128.909 11.9618 129.005 12.0575 129.154 12.2366C129.355 12.5542 129.433 12.9192 129.53 13.2756C129.555 13.3642 129.581 13.4529 129.606 13.5443C129.675 13.7849 129.742 14.0258 129.808 14.2668C129.878 14.5178 129.949 14.7685 130.02 15.0192C130.136 15.4305 130.251 15.842 130.366 16.2535C130.527 16.8309 130.691 17.4074 130.856 17.9838C130.93 18.2411 131.003 18.4983 131.077 18.7556C131.123 18.919 131.17 19.0825 131.217 19.2458C131.282 19.472 131.346 19.6984 131.41 19.9248C131.439 20.0244 131.439 20.0244 131.468 20.126C131.494 20.2173 131.494 20.2173 131.52 20.3105C131.535 20.363 131.55 20.4156 131.565 20.4697C131.597 20.6169 131.597 20.6169 131.597 20.9057C131.047 20.9057 130.497 20.9057 129.93 20.9057C129.823 20.5387 129.716 20.1717 129.609 19.8046C129.584 19.7199 129.584 19.7199 129.559 19.6335C129.344 18.9001 129.132 18.1662 128.923 17.4316C128.892 17.323 128.892 17.323 128.86 17.2123C128.759 16.855 128.657 16.4977 128.556 16.1404C128.518 16.0094 128.481 15.8783 128.444 15.7473C128.427 15.6868 128.41 15.6263 128.392 15.564C128.31 15.2676 128.31 15.2676 128.188 14.9853C128.136 15.1021 128.136 15.1021 128.082 15.2212C128.033 15.3324 127.983 15.4435 127.933 15.5547C127.906 15.6148 127.879 15.6749 127.851 15.7369C127.7 16.0734 127.549 16.4098 127.397 16.746C127.117 17.3669 126.837 17.9878 126.564 18.6114C126.456 18.8566 126.348 19.1014 126.239 19.3462C126.188 19.4616 126.138 19.5772 126.088 19.693C126.018 19.8545 125.946 20.0153 125.875 20.176C125.855 20.223 125.835 20.2699 125.815 20.3183C125.657 20.6649 125.475 20.8357 125.159 21.0501C124.962 21.098 124.962 21.098 124.775 21.0952C124.683 21.0966 124.683 21.0966 124.588 21.098C124.318 21.0287 124.18 20.9007 124.023 20.6891C123.865 20.4138 123.736 20.1283 123.606 19.8407C123.565 19.7522 123.524 19.6637 123.483 19.5753C123.333 19.2493 123.186 18.9223 123.038 18.5953C123.006 18.5242 122.974 18.4531 122.941 18.3799C122.44 17.2734 121.943 16.1658 121.447 15.0575C121.281 15.2955 121.226 15.4851 121.149 15.7612C121.135 15.8104 121.121 15.8596 121.107 15.9103C121.062 16.0731 121.017 16.2359 120.972 16.3988C120.94 16.5122 120.908 16.6256 120.877 16.739C120.793 17.0379 120.71 17.3368 120.627 17.6358C120.527 17.9977 120.426 18.3595 120.325 18.7214C120.246 19.0032 120.168 19.2851 120.09 19.567C120.075 19.6192 120.061 19.6713 120.046 19.7251C120.007 19.8655 119.968 20.0059 119.929 20.1463C119.857 20.4001 119.781 20.6529 119.705 20.9057C119.155 20.9057 118.606 20.9057 118.039 20.9057C118.089 20.5244 118.138 20.2069 118.242 19.8444C118.268 19.7525 118.295 19.6605 118.322 19.5658C118.35 19.4664 118.379 19.367 118.408 19.2676C118.438 19.1629 118.468 19.0582 118.497 18.9535C118.577 18.6747 118.657 18.3962 118.737 18.1176C118.82 17.8303 118.903 17.543 118.985 17.2556C119.083 16.9132 119.182 16.5707 119.28 16.2283C119.464 15.5906 119.644 14.9523 119.821 14.3129C119.876 14.1156 119.932 13.9183 119.987 13.7211C120.02 13.6023 120.052 13.4835 120.085 13.3645C120.128 13.2035 120.173 13.043 120.218 12.8824C120.242 12.7959 120.266 12.7093 120.29 12.6201C120.425 12.2951 120.598 11.9955 120.972 11.9004Z" fill="#FAD010"/>
<path d="M176.363 12.0727C176.472 12.0726 176.472 12.0726 176.583 12.0726C176.82 12.0727 177.058 12.0744 177.295 12.0761C177.46 12.0765 177.626 12.0768 177.791 12.077C178.225 12.0779 178.659 12.08 179.092 12.0824C179.536 12.0846 179.979 12.0856 180.422 12.0867C181.291 12.089 182.159 12.0928 183.027 12.0973C183.027 12.6214 183.027 13.1456 183.027 13.6857C182.714 13.6867 182.714 13.6867 182.395 13.6877C181.705 13.6902 181.015 13.6942 180.325 13.6989C179.907 13.7018 179.489 13.7041 179.071 13.7052C178.667 13.7063 178.263 13.7088 177.86 13.7123C177.706 13.7133 177.552 13.7139 177.398 13.714C177.182 13.7141 176.966 13.7161 176.75 13.7185C176.687 13.7181 176.623 13.7177 176.558 13.7174C176.155 13.7242 175.924 13.7924 175.605 14.0467C175.44 14.2955 175.363 14.5654 175.395 14.8595C175.437 15.0324 175.437 15.0324 175.529 15.2741C175.554 15.3456 175.579 15.417 175.605 15.4907C176.141 15.7652 176.777 15.7373 177.368 15.7347C177.535 15.7341 177.701 15.7348 177.867 15.7359C178.34 15.7388 178.813 15.7389 179.285 15.7387C179.576 15.7387 179.866 15.7401 180.157 15.7423C180.319 15.7431 180.481 15.7422 180.644 15.7413C181.517 15.7434 182.319 15.8673 182.958 16.4758C183.589 17.2161 183.577 18.1191 183.482 19.0285C183.369 19.6223 183.061 20.0882 182.573 20.4725C182.112 20.7265 181.644 20.915 181.107 20.9144C181.042 20.9145 180.976 20.9146 180.909 20.9147C180.838 20.9144 180.767 20.9141 180.693 20.9139C180.618 20.9139 180.542 20.9139 180.465 20.9139C180.216 20.9139 179.966 20.9133 179.717 20.9127C179.544 20.9126 179.372 20.9125 179.199 20.9124C178.744 20.9121 178.289 20.9114 177.835 20.9106C177.371 20.9099 176.907 20.9096 176.443 20.9092C175.532 20.9084 174.622 20.9072 173.711 20.9057C173.711 20.3815 173.711 19.8573 173.711 19.3173C173.931 19.3162 174.152 19.3152 174.378 19.3141C175.106 19.3105 175.834 19.3056 176.561 19.3003C177.003 19.297 177.444 19.2942 177.885 19.2923C178.311 19.2904 178.736 19.2875 179.162 19.2838C179.325 19.2826 179.487 19.2818 179.649 19.2813C179.877 19.2807 180.105 19.2786 180.332 19.2763C180.399 19.2764 180.466 19.2765 180.535 19.2766C180.978 19.2702 181.293 19.196 181.648 18.9253C181.831 18.6994 181.872 18.4419 181.891 18.1621C181.839 17.801 181.738 17.5752 181.451 17.3318C181.058 17.1556 180.68 17.1423 180.251 17.141C180.103 17.1403 180.103 17.1403 179.951 17.1395C179.899 17.1394 179.847 17.1392 179.793 17.1391C179.627 17.1386 179.462 17.1374 179.297 17.1361C178.827 17.1323 178.357 17.1289 177.886 17.1277C177.598 17.127 177.31 17.1249 177.022 17.1219C176.913 17.121 176.804 17.1206 176.694 17.1208C175.71 17.1219 174.885 16.965 174.166 16.2849C173.573 15.5712 173.556 14.7757 173.635 13.9023C173.77 13.2758 174.174 12.8289 174.686 12.4357C175.238 12.1517 175.741 12.0654 176.363 12.0727Z" fill="white"/>
<path d="M111.474 12.0585C111.749 12.06 112.024 12.0585 112.299 12.0567C113.744 12.055 115.048 12.1976 116.155 13.1814C117.074 14.1188 117.493 15.343 117.451 16.6182C117.333 18.0071 116.837 19.0819 115.753 20.037C114.909 20.7167 113.897 20.9262 112.821 20.9313C112.693 20.9323 112.693 20.9323 112.562 20.9333C112.382 20.9344 112.201 20.935 112.02 20.9353C111.747 20.9361 111.475 20.9397 111.202 20.9433C109.753 20.9531 108.577 20.7812 107.461 19.817C106.296 18.624 106.082 17.2784 106.131 15.7049C106.195 14.6669 106.744 13.7561 107.529 13.0531C108.725 12.1089 109.987 12.0485 111.474 12.0585ZM109.25 13.9733C109.17 14.0135 109.091 14.0538 109.009 14.0952C108.382 14.586 107.938 15.1482 107.811 15.9227C107.744 16.8737 107.825 17.699 108.5 18.4523C109.175 19.1159 109.908 19.338 110.864 19.3545C111.084 19.356 111.304 19.3556 111.524 19.3538C111.749 19.3523 111.974 19.3538 112.199 19.3556C113.311 19.3572 114.156 19.2375 114.982 18.4768C115.548 17.8958 115.719 17.2072 115.764 16.4281C115.734 15.6527 115.423 14.9367 114.864 14.3704C114.228 13.8137 113.505 13.6623 112.664 13.6603C112.593 13.6598 112.522 13.6593 112.448 13.6588C112.298 13.6581 112.148 13.6578 111.998 13.6578C111.77 13.6575 111.543 13.6548 111.315 13.6521C110.249 13.6427 110.249 13.6427 109.25 13.9733Z" fill="#FAD010"/>
<path d="M141.75 12.0992C143.564 12.0925 143.564 12.0925 145.414 12.0857C145.795 12.0837 146.175 12.0817 146.567 12.0797C147.035 12.0787 147.035 12.0787 147.255 12.0785C147.407 12.0782 147.559 12.0775 147.711 12.0763C147.942 12.0748 148.174 12.0745 148.405 12.0746C148.472 12.0738 148.539 12.0731 148.608 12.0723C149.45 12.0762 150.203 12.347 150.84 12.8751C151.652 13.6816 151.707 14.6805 151.693 15.7326C151.678 16.1797 151.603 16.5454 151.369 16.9366C151.335 16.9946 151.301 17.0526 151.266 17.1123C150.939 17.622 150.555 18.0187 149.93 18.164C150.396 18.7971 150.978 19.3209 151.554 19.8607C151.702 19.9997 151.849 20.1387 151.997 20.278C152.088 20.3641 152.18 20.45 152.271 20.5357C152.376 20.6342 152.479 20.7346 152.581 20.8354C152.581 20.8593 152.581 20.8831 152.581 20.9076C150.333 21.0954 150.333 21.0954 149.779 20.6868C149.546 20.4658 149.358 20.2198 149.184 19.9551C149.075 19.792 148.947 19.6542 148.808 19.5133C148.67 19.3692 148.559 19.235 148.455 19.0659C148.256 18.7838 148.069 18.568 147.709 18.4839C147.187 18.4205 146.663 18.4348 146.138 18.4438C145.977 18.4439 145.816 18.4438 145.655 18.4432C145.262 18.4427 144.869 18.4465 144.477 18.4528C144.477 18.0001 144.477 17.5474 144.477 17.081C144.599 17.08 144.722 17.0789 144.848 17.0778C145.305 17.0736 145.762 17.0681 146.219 17.0621C146.416 17.0597 146.614 17.0577 146.811 17.056C147.096 17.0536 147.38 17.0498 147.665 17.0458C147.752 17.0453 147.84 17.0448 147.93 17.0444C148.528 17.0341 149.06 16.9896 149.542 16.6298C149.929 16.1522 150.051 15.6264 149.987 15.0284C149.895 14.5657 149.721 14.2432 149.319 13.9539C148.976 13.7658 148.728 13.7495 148.336 13.745C148.254 13.7439 148.254 13.7439 148.17 13.7428C147.993 13.7405 147.815 13.7387 147.638 13.737C147.528 13.7356 147.419 13.7343 147.309 13.7329C146.903 13.728 146.497 13.7236 146.091 13.7192C144.729 13.7036 144.729 13.7036 143.341 13.6876C143.341 16.0702 143.341 18.4528 143.341 20.9076C142.816 20.9076 142.291 20.9076 141.75 20.9076C141.75 18.0009 141.75 15.0941 141.75 12.0992Z" fill="white"/>
<path d="M58.5078 12.0992C60.3215 12.0925 60.3215 12.0925 62.1718 12.0857C62.5524 12.0837 62.933 12.0817 63.3252 12.0797C63.7929 12.0787 63.7929 12.0787 64.0125 12.0785C64.1645 12.0782 64.3166 12.0775 64.4687 12.0763C64.7002 12.0748 64.9316 12.0745 65.1631 12.0746C65.2299 12.0738 65.2967 12.0731 65.3655 12.0723C66.2076 12.0762 66.9603 12.347 67.5973 12.8751C68.41 13.6816 68.4649 14.6805 68.4509 15.7326C68.4356 16.1797 68.3607 16.5454 68.1269 16.9366C68.093 16.9946 68.0592 17.0526 68.0243 17.1123C67.6968 17.622 67.313 18.0187 66.6878 18.164C67.1538 18.7971 67.7354 19.3209 68.3115 19.8607C68.4594 19.9997 68.6071 20.1387 68.7547 20.278C68.8459 20.3641 68.9374 20.45 69.029 20.5357C69.1337 20.6342 69.2365 20.7346 69.3388 20.8354C69.3388 20.8593 69.3388 20.8831 69.3388 20.9076C67.0913 21.0954 67.0913 21.0954 66.5367 20.6868C66.3041 20.4658 66.1162 20.2198 65.9418 19.9551C65.8329 19.792 65.7043 19.6542 65.5659 19.5133C65.4276 19.3692 65.3171 19.235 65.2132 19.0659C65.0136 18.7838 64.8265 18.568 64.4669 18.4839C63.9453 18.4205 63.4207 18.4348 62.8961 18.4438C62.735 18.4439 62.5739 18.4438 62.4128 18.4432C62.0199 18.4427 61.6273 18.4465 61.2345 18.4528C61.2345 18.0001 61.2345 17.5474 61.2345 17.081C61.3571 17.08 61.4797 17.0789 61.6061 17.0778C62.063 17.0736 62.5199 17.0681 62.9768 17.0621C63.1742 17.0597 63.3716 17.0577 63.569 17.056C63.8535 17.0536 64.1379 17.0498 64.4224 17.0458C64.51 17.0453 64.5976 17.0448 64.6879 17.0444C65.2857 17.0341 65.8173 16.9896 66.2997 16.6298C66.6868 16.1522 66.8092 15.6264 66.7447 15.0284C66.6531 14.5657 66.4791 14.2432 66.0772 13.9539C65.7338 13.7658 65.4857 13.7495 65.0941 13.745C65.0119 13.7439 65.0119 13.7439 64.928 13.7428C64.7506 13.7405 64.5732 13.7387 64.3958 13.737C64.2862 13.7356 64.1767 13.7343 64.0671 13.7329C63.661 13.728 63.2549 13.7236 62.8487 13.7192C61.4873 13.7036 61.4873 13.7036 60.0984 13.6876C60.0984 16.0702 60.0984 18.4528 60.0984 20.9076C59.5735 20.9076 59.0486 20.9076 58.5078 20.9076C58.5078 18.0009 58.5078 15.0941 58.5078 12.0992Z" fill="#FAD010"/>
<path d="M94.9453 12.0956C95.9529 12.0911 96.9605 12.0866 97.9986 12.082C98.3153 12.08 98.6319 12.0781 98.9582 12.076C99.3487 12.0751 99.3487 12.0751 99.5322 12.0749C99.6588 12.0746 99.7854 12.0738 99.9119 12.0727C101.301 12.0611 102.451 12.2815 103.49 13.2358C103.572 13.3147 103.572 13.3147 103.656 13.3952C103.699 13.4351 103.743 13.475 103.787 13.5161C104.539 14.2638 104.789 15.384 104.82 16.3869C104.778 17.6551 104.398 18.8192 103.449 19.7409C102.608 20.484 101.679 20.9311 100.517 20.9204C100.456 20.9204 100.394 20.9204 100.33 20.9204C100.133 20.9203 99.9357 20.9192 99.7383 20.9181C99.6156 20.9179 99.4929 20.9177 99.3702 20.9176C98.9177 20.9169 98.4653 20.9149 98.0128 20.913C97.0005 20.91 95.9883 20.907 94.9453 20.904C94.9453 17.9972 94.9453 15.0904 94.9453 12.0956ZM96.5359 13.684C96.5359 15.5424 96.5359 17.4008 96.5359 19.3156C97.2295 19.323 97.9231 19.3305 98.6377 19.3381C98.8548 19.3414 99.0719 19.3447 99.2956 19.3481C99.4704 19.3491 99.6452 19.3501 99.82 19.3508C99.9528 19.3536 99.9528 19.3536 100.088 19.3564C100.985 19.3569 101.709 19.0887 102.353 18.4903C102.939 17.837 103.151 17.0512 103.116 16.2014C103.016 15.4442 102.672 14.7583 102.082 14.239C101.574 13.8711 101.057 13.6744 100.422 13.6758C100.335 13.6758 100.247 13.6758 100.157 13.6758C100.065 13.6762 99.9736 13.6765 99.8791 13.6769C99.7946 13.677 99.71 13.6771 99.6229 13.6771C99.3071 13.6775 98.9913 13.6785 98.6756 13.6794C97.9695 13.6809 97.2634 13.6824 96.5359 13.684Z" fill="#FAD010"/>
<path d="M84.6402 11.9564C84.7985 12.0574 84.7985 12.0574 84.9595 12.2032C85.0254 12.2626 85.0913 12.322 85.1592 12.3832C85.2389 12.4574 85.3183 12.5317 85.3976 12.6062C85.4444 12.65 85.4912 12.6937 85.5394 12.7388C85.9502 13.1238 86.3571 13.5126 86.7639 13.9016C86.8952 14.0269 87.0266 14.1523 87.158 14.2776C87.5016 14.6054 87.8449 14.9334 88.1882 15.2614C88.6014 15.6561 89.0148 16.0505 89.4281 16.445C90.0541 17.0424 90.6797 17.6401 91.3054 18.2378C91.3304 16.1888 91.3554 14.1398 91.3811 12.0286C91.906 12.0286 92.4309 12.0286 92.9717 12.0286C92.9787 13.1426 92.9841 14.2566 92.9874 15.3706C92.989 15.8879 92.9911 16.4051 92.9945 16.9224C92.9976 17.3733 92.9995 17.8241 93.0002 18.275C93.0006 18.5137 93.0017 18.7524 93.0037 18.9911C93.0059 19.2577 93.0062 19.5242 93.0061 19.7908C93.0072 19.8698 93.0083 19.9488 93.0094 20.0303C93.0063 20.5657 93.0063 20.5657 92.8275 20.8483C92.6042 21.0355 92.4595 21.0725 92.1669 21.0897C92.105 21.0949 92.0431 21.1002 91.9794 21.1055C91.42 20.9733 90.9483 20.3629 90.55 19.9822C90.495 19.9298 90.44 19.8774 90.3832 19.8234C90.2678 19.7134 90.1524 19.6032 90.0371 19.493C89.862 19.3258 89.6866 19.1589 89.5111 18.9921C89.3982 18.8845 89.2854 18.7768 89.1725 18.6691C89.1208 18.6199 89.0691 18.5708 89.0159 18.5202C88.7754 18.2899 88.5425 18.057 88.3201 17.8107C88.0135 17.4723 87.6832 17.1585 87.3506 16.8435C87.293 16.7887 87.2355 16.7339 87.1762 16.6775C86.9638 16.4754 86.7511 16.2736 86.5384 16.0718C85.8237 15.3928 85.8237 15.3928 85.0946 14.7C85.0696 16.7491 85.0446 18.7981 85.0189 20.9092C84.494 20.9092 83.9691 20.9092 83.4283 20.9092C83.4213 19.8047 83.4159 18.7001 83.4126 17.5955C83.4111 17.0826 83.4089 16.5697 83.4055 16.0568C83.4021 15.562 83.4004 15.0672 83.3996 14.5724C83.399 14.3834 83.3979 14.1945 83.3963 14.0056C83.3941 13.7413 83.3938 13.477 83.3939 13.2127C83.3928 13.1343 83.3917 13.0559 83.3906 12.9752C83.3937 12.4443 83.3937 12.4443 83.5725 12.1622C83.8966 11.8895 84.2251 11.8818 84.6402 11.9564Z" fill="#FAD010"/>
<path d="M76.3809 11.9546C76.8478 12.2947 77.1342 12.8614 77.419 13.3383C77.5006 13.475 77.5831 13.6112 77.6657 13.7473C77.7535 13.8919 77.8413 14.0365 77.9289 14.1813C78.254 14.7187 78.5857 15.2524 78.9182 15.7857C78.9633 15.8579 78.9633 15.8579 79.0092 15.9317C79.4358 16.6163 79.8664 17.2985 80.3005 17.9788C80.3266 18.0197 80.3527 18.0606 80.3796 18.1027C80.5092 18.3058 80.6388 18.5089 80.7684 18.7119C80.8202 18.7931 80.872 18.8743 80.9254 18.958C80.9526 19.0006 80.9798 19.0433 81.0079 19.0872C81.1971 19.3838 81.3856 19.6807 81.5739 19.9778C81.6231 20.0549 81.6724 20.132 81.7231 20.2114C81.7677 20.282 81.8123 20.3525 81.8582 20.4251C81.8976 20.4871 81.937 20.5491 81.9776 20.613C82.0615 20.763 82.0615 20.763 82.0615 20.9074C81.3996 21.0388 80.6555 21.168 80.0165 20.9074C79.8107 20.6316 79.6998 20.3293 79.5779 20.0142C79.3921 19.5399 79.2056 19.0821 78.7289 18.8136C77.9971 18.6079 77.209 18.6328 76.4519 18.6466C76.3746 18.648 76.3746 18.648 76.2957 18.6494C75.6413 18.6629 74.9886 18.6945 74.3359 18.7414C74.3853 18.5966 74.436 18.4523 74.4874 18.3082C74.5272 18.195 74.5272 18.195 74.5677 18.0795C74.69 17.8152 74.797 17.6418 75.0176 17.4418C75.471 17.2889 75.9789 17.3372 76.4519 17.3515C76.5845 17.3524 76.7171 17.3529 76.8497 17.3529C77.1734 17.354 77.4965 17.3603 77.82 17.3696C77.6479 17.0885 77.4756 16.8075 77.3032 16.5266C77.2448 16.4314 77.1865 16.3363 77.1282 16.2411C76.7363 15.6012 76.337 14.9665 75.9265 14.3372C75.5709 14.8278 75.2556 15.3352 74.9466 15.8534C74.561 16.4955 74.1693 17.1334 73.7679 17.7667C73.2242 18.6248 72.698 19.4917 72.1757 20.3617C72.1388 20.4227 72.1018 20.4836 72.0637 20.5464C72.0143 20.6465 72.0143 20.6465 71.964 20.7486C71.8365 20.9074 71.8365 20.9074 71.6299 20.9484C71.5486 20.9465 71.4673 20.9446 71.3835 20.9426C71.2954 20.9415 71.2073 20.9403 71.1165 20.9391C71.0245 20.9361 70.9324 20.9331 70.8376 20.9299C70.7447 20.9283 70.6518 20.9267 70.5561 20.925C70.3264 20.9207 70.0968 20.9148 69.8672 20.9074C69.9817 20.6081 70.1367 20.3412 70.3083 20.0692C70.3369 20.0233 70.3656 19.9775 70.3951 19.9303C70.4887 19.7805 70.5827 19.631 70.6767 19.4814C70.7424 19.3765 70.8081 19.2715 70.8737 19.1665C71.068 18.8561 71.2628 18.546 71.4577 18.236C71.4844 18.1936 71.511 18.1513 71.5385 18.1076C71.7458 17.7779 71.9534 17.4483 72.1612 17.1189C72.5207 16.5485 72.8775 15.9766 73.2336 15.4043C73.3267 15.2547 73.4199 15.1051 73.513 14.9555C73.5581 14.8831 73.5581 14.8831 73.6041 14.8093C73.6636 14.7139 73.723 14.6184 73.7825 14.523C73.9588 14.2398 74.1347 13.9565 74.3105 13.673C74.3899 13.5454 74.4694 13.4178 74.5489 13.2903C74.5829 13.2351 74.6169 13.18 74.6519 13.1232C75.4868 11.7879 75.4868 11.7879 76.3809 11.9546Z" fill="#FAD010"/>
<path d="M163.781 12.1016C166.506 12.1016 169.23 12.1016 172.037 12.1016C172.037 12.6257 172.037 13.1499 172.037 13.69C169.838 13.69 167.638 13.69 165.372 13.69C165.372 15.5484 165.372 17.4068 165.372 19.3216C167.571 19.3216 169.771 19.3216 172.037 19.3216C172.037 19.8457 172.037 20.3699 172.037 20.91C169.313 20.91 166.588 20.91 163.781 20.91C163.781 18.0032 163.781 15.0964 163.781 12.1016Z" fill="white"/>
<path d="M153.781 12.1016C156.506 12.1016 159.23 12.1016 162.037 12.1016C162.037 12.6257 162.037 13.1499 162.037 13.69C159.838 13.69 157.638 13.69 155.372 13.69C155.372 15.5484 155.372 17.4068 155.372 19.3216C157.571 19.3216 159.771 19.3216 162.037 19.3216C162.037 19.8457 162.037 20.3699 162.037 20.91C159.313 20.91 156.588 20.91 153.781 20.91C153.781 18.0032 153.781 15.0964 153.781 12.1016Z" fill="white"/>
<path d="M131.602 12.1016C134.476 12.1016 137.35 12.1016 140.312 12.1016C140.312 12.6257 140.312 13.1499 140.312 13.69C139.137 13.69 137.962 13.69 136.752 13.69C136.752 16.0726 136.752 18.4552 136.752 20.91C136.202 20.91 135.652 20.91 135.086 20.91C135.086 18.5274 135.086 16.1448 135.086 13.69C133.936 13.69 132.786 13.69 131.602 13.69C131.602 13.1658 131.602 12.6416 131.602 12.1016Z" fill="white"/>
<path d="M166.508 15.7793C168.207 15.7793 169.907 15.7793 171.658 15.7793C171.658 16.2082 171.658 16.637 171.658 17.0789C169.959 17.0789 168.259 17.0789 166.508 17.0789C166.508 16.65 166.508 16.2212 166.508 15.7793Z" fill="white"/>
<path d="M156.516 15.7793C158.215 15.7793 159.915 15.7793 161.666 15.7793C161.666 16.2082 161.666 16.637 161.666 17.0789C159.966 17.0789 158.267 17.0789 156.516 17.0789C156.516 16.65 156.516 16.2212 156.516 15.7793Z" fill="white"/>
<path d="M61.7937 32.0416H58.5078V26.3671H61.7937C63.3938 26.3671 64.557 27.4989 64.557 29.1458C64.557 30.7927 63.3938 32.0416 61.7937 32.0416ZM59.4911 31.0503H61.7937C62.8163 31.0503 63.5657 30.262 63.5657 29.1926C63.5657 28.1233 62.8163 27.3584 61.7937 27.3584H59.4911V31.0503ZM72.4263 32.0416H71.2321L70.3814 30.6132H67.6964L68.1646 29.8092H69.9053L68.6407 27.6862L66.065 32.0416H64.9334L68.1959 26.6091C68.313 26.414 68.4613 26.2891 68.6797 26.2891C68.8984 26.2891 69.0388 26.414 69.1559 26.6091L72.4263 32.0416ZM75.5434 32.0416H74.5521V27.3584H72.3979V26.3671H77.6976V27.3584H75.5434V32.0416ZM85.0971 32.0416H83.9031L83.0522 30.6132H80.3672L80.8354 29.8092H82.5761L81.3115 27.6862L78.7358 32.0416H77.6042L80.8667 26.6091C80.9837 26.414 81.1321 26.2891 81.3505 26.2891C81.5692 26.2891 81.7096 26.414 81.8266 26.6091L85.0971 32.0416ZM94.6135 32.0416H91.1244C90.0004 32.0416 89.2979 31.3625 89.2979 30.3166C89.2979 29.6688 89.6806 29.2083 90.1878 29.0443C89.7663 28.9117 89.4072 28.5526 89.4072 27.8345C89.4072 26.8667 90.1331 26.3671 91.2416 26.3671H92.3186V27.3506H91.2103C90.6795 27.3506 90.4064 27.5926 90.4064 28.0531C90.4064 28.4901 90.6795 28.7399 91.2337 28.7399H94.2621V29.5673H93.5909V31.0503H94.6135V32.0416ZM92.5997 31.0503V29.5673H91.304C90.6562 29.5673 90.2971 29.739 90.2971 30.2932C90.2971 30.7771 90.6562 31.0503 91.2884 31.0503H92.5997ZM106.14 32.0416H104.946L104.095 30.6132H101.41L101.878 29.8092H103.619L102.354 27.6862L99.7783 32.0416H98.6467L101.909 26.6091C102.026 26.414 102.175 26.2891 102.393 26.2891C102.612 26.2891 102.752 26.414 102.869 26.6091L106.14 32.0416ZM108.499 32.0416H107.508V26.3671H108.499V32.0416ZM114.279 32.0416H113.288V26.3671H114.279V32.0416ZM120.926 31.9011L116.938 27.8892V32.0416H115.993V26.8901C115.993 26.5232 116.188 26.2969 116.501 26.2969C116.649 26.2969 116.774 26.3515 116.922 26.4998L120.926 30.4727V26.3203H121.871V31.5186C121.871 31.8933 121.668 32.1118 121.379 32.1118C121.215 32.1118 121.067 32.0416 120.926 31.9011ZM128.443 31.9011L124.454 27.8892V32.0416H123.51V26.8901C123.51 26.5232 123.705 26.2969 124.017 26.2969C124.166 26.2969 124.291 26.3515 124.439 26.4998L128.443 30.4727V26.3203H129.387V31.5186C129.387 31.8933 129.185 32.1118 128.896 32.1118C128.732 32.1118 128.583 32.0416 128.443 31.9011ZM135.023 32.0416H133.642C132.057 32.0416 130.887 30.7927 130.887 29.1458C130.887 27.4755 132.057 26.3671 133.642 26.3671H135.023C136.662 26.3671 137.802 27.4989 137.802 29.1458C137.802 30.7927 136.639 32.0416 135.023 32.0416ZM133.642 31.0503H135.023C136.069 31.0503 136.811 30.262 136.811 29.1926C136.811 28.1233 136.069 27.3584 135.023 27.3584H133.642C132.627 27.3584 131.878 28.1155 131.878 29.1926C131.878 30.262 132.619 31.0503 133.642 31.0503ZM141.432 31.7996L138.169 26.3671H139.379L141.955 30.7381L144.523 26.3671H145.663L142.392 31.7996C142.275 31.9947 142.119 32.1196 141.916 32.1196C141.697 32.1196 141.549 31.9947 141.432 31.7996ZM152.326 32.0416H151.131L150.281 30.6132H147.596L148.064 29.8092H149.805L148.54 27.6862L145.964 32.0416H144.833L148.095 26.6091C148.212 26.414 148.361 26.2891 148.579 26.2891C148.798 26.2891 148.938 26.414 149.055 26.6091L152.326 32.0416ZM155.443 32.0416H154.451V27.3584H152.297V26.3671H157.597V27.3584H155.443V32.0416ZM159.999 32.0416H159.008V26.3671H159.999V32.0416ZM165.709 32.0416H164.328C162.743 32.0416 161.573 30.7927 161.573 29.1458C161.573 27.4755 162.743 26.3671 164.328 26.3671H165.709C167.348 26.3671 168.488 27.4989 168.488 29.1458C168.488 30.7927 167.325 32.0416 165.709 32.0416ZM164.328 31.0503H165.709C166.755 31.0503 167.497 30.262 167.497 29.1926C167.497 28.1233 166.755 27.3584 165.709 27.3584H164.328C163.313 27.3584 162.564 28.1155 162.564 29.1926C162.564 30.262 163.305 31.0503 164.328 31.0503ZM174.902 31.9011L170.914 27.8892V32.0416H169.969V26.8901C169.969 26.5232 170.164 26.2969 170.477 26.2969C170.625 26.2969 170.75 26.3515 170.898 26.4998L174.902 30.4727V26.3203H175.847V31.5186C175.847 31.8933 175.644 32.1118 175.355 32.1118C175.191 32.1118 175.043 32.0416 174.902 31.9011ZM181.764 32.0416H177.509V31.0503H181.764C182.294 31.0503 182.591 30.7537 182.591 30.3088C182.591 29.8249 182.294 29.5751 181.764 29.5751H179.157C178.087 29.5751 177.424 28.896 177.424 27.9594C177.424 27.0462 178.04 26.3671 179.172 26.3671H183.246V27.3584H179.172C178.719 27.3584 178.454 27.6238 178.454 28.0531C178.454 28.4823 178.727 28.7399 179.164 28.7399H181.764C182.911 28.7399 183.527 29.2785 183.527 30.379C183.527 31.3313 182.95 32.0416 181.764 32.0416Z" fill="white"/>
</svg>
